M48
;Layer_Color=9474304
;FILE_FORMAT=2:4
INCH,LZ
;TYPE=PLATED
T1F00S00C0.0118
T2F00S00C0.0394
T3F00S00C0.0953
T4F00S00C0.0988
T5F00S00C0.1260
%
T01
X002769Y00084
X003754
X004738
X005722
X006706
X007691
X008675
X009659
X009167Y001824
X008183
X007198
X006214
X00523
X004246
X003261
X002277
X001785Y002809
X002769
X003754
X004738
X005722
X006706
X007691
X008675
X009659
X009167Y003793
X007198
X007339Y004211
X007402Y004724
X004738Y004777
X004246Y003793
X003261
X002277
X001293
X001785Y006746
X002769
X004246Y005761
X005984Y006693
X009275Y006732
X012205Y006102
X01142Y005306
X011628Y004777
X012612
X013596
X013386Y005551
X014173Y005827
X014088Y003793
X013104
X01212
X011135
X011628Y002809
X012612
X013596
X01212Y001824
X011135
X011628Y00084
X012612
X00523Y003793
X014606Y006654
X014685Y007622
X014708Y008803
X014701Y010456
X014701Y010929
X014701Y011401
X014701Y01211
X014039Y012346
X014032Y011637
X014032Y011165
X014032Y010693
X013527Y009393
X013583Y008386
X013937Y008249
X012913Y007976
X01293Y007504
X012559Y008661
X012047Y009055
X01212Y009698
X012421Y010338
X012897Y012228
X013104Y013635
X01212
X011135
X011719Y014291
X011628Y01462
X010643
X008675
X008541Y014188
X007579Y014193
X007691Y01462
X006706
X006503Y013103
X007143Y012638
X007853Y010973
X008103Y011197
X008603Y011186
X009103Y01119
X009606Y010591
X010079Y010591
X010151Y009698
X010827Y008898
X011628Y008714
X011181Y011637
X01063Y011614
X010151Y011667
X009603Y012205
X009483Y013042
X009167Y013635
Y015604
X008581Y015866
X007691Y016588
X007603Y017323
X006706Y016588
X005722
X004738
X004643Y017323
X004246Y017572
X003261
X002277
X002769Y018557
X003754
Y016588
X00523Y015604
X004738Y01462
X004246Y013635
X00523
X004567Y012556
X004563Y011819
X005276Y010551
X00752Y010197
X00874
X008353Y008976
X007441Y008937
X007103Y009055
X002277Y00773
X001293
X002277Y011667
Y013635
X005722Y018557
X006706
X008675
X009659
X010643
X011628
X011736Y017992
X01212Y017572
X011628Y016588
X011721Y016146
X01212Y015604
X013104
X014088
X013596Y016588
X012612
Y01462
X014237Y013504
X012612Y018557
X009167Y017572
T02
X00478Y018406
X007457
T03
X003328Y005226
Y009941
Y014706
T04
X001556Y005226
Y009941
Y014706
T05
X001181Y001181
X01378
Y01811
X001181
M30
