G04 Layer_Color=65535*
%FSLAX24Y24*%
%MOIN*%
G70*
G01*
G75*
%ADD24C,0.0079*%
%ADD26C,0.0157*%
%ADD45C,0.0098*%
%ADD46C,0.0100*%
%ADD47C,0.0039*%
%ADD48C,0.0050*%
%ADD49C,0.0060*%
D24*
X6731Y8989D02*
G03*
X6731Y8989I-39J0D01*
G01*
X10870Y17992D02*
G03*
X10870Y17992I-295J0D01*
G01*
X10856Y16146D02*
G03*
X10856Y16146I-295J0D01*
G01*
X10853Y14291D02*
G03*
X10853Y14291I-295J0D01*
G01*
X10207Y4506D02*
G03*
X10207Y4506I-197J0D01*
G01*
X10118Y8543D02*
G03*
X10118Y8543I-197J0D01*
G01*
X12205Y10555D02*
G03*
X12205Y10555I-197J0D01*
G01*
X12054Y10973D02*
G03*
X12054Y10973I-197J0D01*
G01*
X12402Y11283D02*
G03*
X12402Y11283I-197J0D01*
G01*
X12024Y11637D02*
G03*
X12024Y11637I-197J0D01*
G01*
X12756Y10000D02*
G03*
X12756Y10000I-197J0D01*
G01*
X12717Y7976D02*
G03*
X12717Y7976I-197J0D01*
G01*
Y7504D02*
G03*
X12717Y7504I-197J0D01*
G01*
X5246Y5226D02*
G03*
X5246Y5226I-197J0D01*
G01*
X12756Y6102D02*
G03*
X12756Y6102I-197J0D01*
G01*
X4347Y17717D02*
X4741D01*
X7497D02*
X7891D01*
X7891Y19134D02*
X7891Y17717D01*
X6828Y19134D02*
X7891D01*
X6828D02*
Y19921D01*
X6237D02*
X6828D01*
X6237Y19134D02*
Y19921D01*
X4347Y19134D02*
X6237D01*
X4347Y17717D02*
X4347Y19134D01*
X6273Y15640D02*
Y16073D01*
X5315Y12382D02*
Y12815D01*
Y10800D02*
Y11233D01*
X5354Y11592D02*
Y12045D01*
X5583Y9449D02*
X6035D01*
X7352Y13401D02*
X7805D01*
X9049Y8189D02*
X9502D01*
X6811Y6358D02*
Y6791D01*
X8148Y6340D02*
Y6773D01*
X6308Y3248D02*
Y3681D01*
X7302Y5925D02*
X8561D01*
Y3996D02*
Y5925D01*
X7302Y3996D02*
X8561D01*
X7302D02*
Y5925D01*
X6563Y5976D02*
X7164D01*
X10632Y5080D02*
Y5533D01*
X9984Y17500D02*
X11166Y17500D01*
X9984Y18484D02*
X11166Y18484D01*
X9970Y15654D02*
X11151Y15654D01*
X9970Y16638D02*
X11151Y16638D01*
X9968Y13799D02*
X11149Y13799D01*
X9968Y14783D02*
X11149Y14783D01*
X13780Y6083D02*
Y6516D01*
X8314Y13396D02*
X8767D01*
X8120Y8189D02*
X8573D01*
X7715Y15610D02*
Y16122D01*
X8556Y14318D02*
X8504Y14370D01*
X8399D01*
X8346Y14318D01*
Y14108D01*
X8399Y14055D01*
X8504D01*
X8556Y14108D01*
X8661Y14055D02*
X8766D01*
X8714D01*
Y14370D01*
X8661Y14318D01*
X7572Y8569D02*
X7520Y8622D01*
X7415D01*
X7362Y8569D01*
Y8360D01*
X7415Y8307D01*
X7520D01*
X7572Y8360D01*
X7887Y8307D02*
X7677D01*
X7887Y8517D01*
Y8569D01*
X7834Y8622D01*
X7730D01*
X7677Y8569D01*
X7533Y14357D02*
X7480Y14409D01*
X7375D01*
X7323Y14357D01*
Y14147D01*
X7375Y14094D01*
X7480D01*
X7533Y14147D01*
X7638Y14357D02*
X7690Y14409D01*
X7795D01*
X7848Y14357D01*
Y14304D01*
X7795Y14252D01*
X7743D01*
X7795D01*
X7848Y14199D01*
Y14147D01*
X7795Y14094D01*
X7690D01*
X7638Y14147D01*
X9226Y7467D02*
X9173Y7520D01*
X9068D01*
X9016Y7467D01*
Y7257D01*
X9068Y7205D01*
X9173D01*
X9226Y7257D01*
X9488Y7205D02*
Y7520D01*
X9331Y7362D01*
X9541D01*
X10682Y5971D02*
X10630Y6024D01*
X10525D01*
X10472Y5971D01*
Y5761D01*
X10525Y5709D01*
X10630D01*
X10682Y5761D01*
X10997Y6024D02*
X10787D01*
Y5866D01*
X10892Y5919D01*
X10945D01*
X10997Y5866D01*
Y5761D01*
X10945Y5709D01*
X10840D01*
X10787Y5761D01*
X5092Y9514D02*
X5039Y9567D01*
X4934D01*
X4882Y9514D01*
Y9304D01*
X4934Y9252D01*
X5039D01*
X5092Y9304D01*
X5407Y9567D02*
X5302Y9514D01*
X5197Y9409D01*
Y9304D01*
X5249Y9252D01*
X5354D01*
X5407Y9304D01*
Y9357D01*
X5354Y9409D01*
X5197D01*
X4334Y11941D02*
X4282Y11993D01*
X4177D01*
X4124Y11941D01*
Y11731D01*
X4177Y11679D01*
X4282D01*
X4334Y11731D01*
X4439Y11993D02*
X4649D01*
Y11941D01*
X4439Y11731D01*
Y11679D01*
X13622Y13386D02*
X13517D01*
X13569D01*
Y13123D01*
X13517Y13071D01*
X13464D01*
X13412Y13123D01*
X13727Y13071D02*
X13832D01*
X13779D01*
Y13386D01*
X13727Y13333D01*
X6102Y2795D02*
Y3110D01*
X6260D01*
X6312Y3058D01*
Y2953D01*
X6260Y2900D01*
X6102D01*
X6207D02*
X6312Y2795D01*
X6417D02*
X6522D01*
X6470D01*
Y3110D01*
X6417Y3058D01*
X6063Y6321D02*
X5748D01*
Y6479D01*
X5801Y6531D01*
X5906D01*
X5958Y6479D01*
Y6321D01*
Y6426D02*
X6063Y6531D01*
X5801Y6636D02*
X5748Y6688D01*
Y6793D01*
X5801Y6846D01*
X5853D01*
X5906Y6793D01*
Y6741D01*
Y6793D01*
X5958Y6846D01*
X6011D01*
X6063Y6793D01*
Y6688D01*
X6011Y6636D01*
X8858Y6340D02*
Y6655D01*
X9016D01*
X9068Y6602D01*
Y6497D01*
X9016Y6445D01*
X8858D01*
X8963D02*
X9068Y6340D01*
X9383Y6655D02*
X9173D01*
Y6497D01*
X9278Y6550D01*
X9331D01*
X9383Y6497D01*
Y6392D01*
X9331Y6340D01*
X9226D01*
X9173Y6392D01*
X5984Y15118D02*
Y15433D01*
X6142D01*
X6194Y15380D01*
Y15276D01*
X6142Y15223D01*
X5984D01*
X6089D02*
X6194Y15118D01*
X6509Y15433D02*
X6404Y15380D01*
X6299Y15276D01*
Y15171D01*
X6352Y15118D01*
X6457D01*
X6509Y15171D01*
Y15223D01*
X6457Y15276D01*
X6299D01*
X13386Y5551D02*
Y5866D01*
X13543D01*
X13596Y5814D01*
Y5709D01*
X13543Y5656D01*
X13386D01*
X13491D02*
X13596Y5551D01*
X13701Y5866D02*
X13911D01*
Y5814D01*
X13701Y5604D01*
Y5551D01*
X7677Y3819D02*
Y3556D01*
X7730Y3504D01*
X7835D01*
X7887Y3556D01*
Y3819D01*
X8202Y3504D02*
X7992D01*
X8202Y3714D01*
Y3766D01*
X8149Y3819D01*
X8044D01*
X7992Y3766D01*
X4226Y8622D02*
X4121D01*
X4173D01*
Y8360D01*
X4121Y8308D01*
X4068D01*
X4016Y8360D01*
X4541Y8308D02*
X4331D01*
X4541Y8518D01*
Y8570D01*
X4488Y8622D01*
X4383D01*
X4331Y8570D01*
X3517Y17087D02*
X3412D01*
X3465D01*
Y16824D01*
X3412Y16772D01*
X3360D01*
X3307Y16824D01*
X3622Y17034D02*
X3674Y17087D01*
X3779D01*
X3832Y17034D01*
Y16982D01*
X3779Y16929D01*
X3727D01*
X3779D01*
X3832Y16877D01*
Y16824D01*
X3779Y16772D01*
X3674D01*
X3622Y16824D01*
X4265Y7008D02*
X4160D01*
X4213D01*
Y6745D01*
X4160Y6693D01*
X4108D01*
X4055Y6745D01*
X4527Y6693D02*
Y7008D01*
X4370Y6850D01*
X4580D01*
X7198Y15433D02*
Y15118D01*
X7408D01*
X7723Y15433D02*
X7513D01*
Y15118D01*
X7723D01*
X7513Y15276D02*
X7618D01*
X7828Y15433D02*
Y15118D01*
X7986D01*
X8038Y15171D01*
Y15380D01*
X7986Y15433D01*
X7828D01*
X8143Y15118D02*
X8248D01*
X8195D01*
Y15433D01*
X8143Y15380D01*
X4094Y12402D02*
Y12716D01*
X4252D01*
X4304Y12664D01*
Y12559D01*
X4252Y12507D01*
X4094D01*
X4199D02*
X4304Y12402D01*
X4619D02*
X4409D01*
X4619Y12611D01*
Y12664D01*
X4567Y12716D01*
X4462D01*
X4409Y12664D01*
X4094Y10816D02*
Y11131D01*
X4252D01*
X4304Y11079D01*
Y10974D01*
X4252Y10921D01*
X4094D01*
X4199D02*
X4304Y10816D01*
X4567D02*
Y11131D01*
X4409Y10974D01*
X4619D01*
X8241Y18569D02*
X8189Y18622D01*
X8084D01*
X8031Y18569D01*
Y18517D01*
X8084Y18465D01*
X8189D01*
X8241Y18412D01*
Y18360D01*
X8189Y18307D01*
X8084D01*
X8031Y18360D01*
X8504Y18307D02*
Y18622D01*
X8346Y18465D01*
X8556D01*
X11745Y14357D02*
X11693Y14409D01*
X11588D01*
X11535Y14357D01*
Y14304D01*
X11588Y14252D01*
X11693D01*
X11745Y14199D01*
Y14147D01*
X11693Y14094D01*
X11588D01*
X11535Y14147D01*
X12060Y14094D02*
X11850D01*
X12060Y14304D01*
Y14357D01*
X12008Y14409D01*
X11903D01*
X11850Y14357D01*
X11745Y16247D02*
X11693Y16299D01*
X11588D01*
X11535Y16247D01*
Y16194D01*
X11588Y16142D01*
X11693D01*
X11745Y16089D01*
Y16037D01*
X11693Y15984D01*
X11588D01*
X11535Y16037D01*
X11850Y16247D02*
X11903Y16299D01*
X12008D01*
X12060Y16247D01*
Y16194D01*
X12008Y16142D01*
X11955D01*
X12008D01*
X12060Y16089D01*
Y16037D01*
X12008Y15984D01*
X11903D01*
X11850Y16037D01*
X11730Y17762D02*
X11677Y17815D01*
X11572D01*
X11520Y17762D01*
Y17710D01*
X11572Y17657D01*
X11677D01*
X11730Y17605D01*
Y17552D01*
X11677Y17500D01*
X11572D01*
X11520Y17552D01*
X11835Y17500D02*
X11940D01*
X11887D01*
Y17815D01*
X11835Y17762D01*
X7008Y12480D02*
Y12218D01*
X7060Y12165D01*
X7165D01*
X7218Y12218D01*
Y12480D01*
X7323Y12165D02*
X7428D01*
X7375D01*
Y12480D01*
X7323Y12428D01*
D26*
X7128Y16551D02*
G03*
X7128Y16551I-65J0D01*
G01*
D45*
X8513Y15866D02*
G03*
X8513Y15866I-49J0D01*
G01*
X10354Y4724D02*
Y4462D01*
X10486Y4331D01*
X10617Y4462D01*
Y4724D01*
X10748D02*
Y4331D01*
X10945D01*
X11010Y4396D01*
Y4659D01*
X10945Y4724D01*
X10748D01*
X11141D02*
Y4331D01*
X11338D01*
X11404Y4396D01*
Y4659D01*
X11338Y4724D01*
X11141D01*
X11797D02*
X11535D01*
Y4527D01*
X11666Y4593D01*
X11732D01*
X11797Y4527D01*
Y4396D01*
X11732Y4331D01*
X11601D01*
X11535Y4396D01*
X9685Y9252D02*
Y8989D01*
X9816Y8858D01*
X9947Y8989D01*
Y9252D01*
X10079D02*
Y8858D01*
X10275D01*
X10341Y8924D01*
Y9186D01*
X10275Y9252D01*
X10079D01*
X10472D02*
Y8858D01*
X10669D01*
X10735Y8924D01*
Y9186D01*
X10669Y9252D01*
X10472D01*
X10866Y9186D02*
X10931Y9252D01*
X11063D01*
X11128Y9186D01*
Y9121D01*
X11063Y9055D01*
X10997D01*
X11063D01*
X11128Y8989D01*
Y8924D01*
X11063Y8858D01*
X10931D01*
X10866Y8924D01*
X11259Y8858D02*
Y8924D01*
X11325D01*
Y8858D01*
X11259D01*
X11587Y9186D02*
X11653Y9252D01*
X11784D01*
X11850Y9186D01*
Y9121D01*
X11784Y9055D01*
X11718D01*
X11784D01*
X11850Y8989D01*
Y8924D01*
X11784Y8858D01*
X11653D01*
X11587Y8924D01*
X10039Y10433D02*
X10302D01*
X10171D01*
Y10039D01*
X10433Y10433D02*
Y10171D01*
X10564Y10039D01*
X10695Y10171D01*
Y10433D01*
X10827D02*
Y10039D01*
X11023D01*
X11089Y10105D01*
Y10367D01*
X11023Y10433D01*
X10827D01*
X11220D02*
X11482D01*
Y10367D01*
X11220Y10105D01*
Y10039D01*
X10079Y10984D02*
X10341D01*
X10210D01*
Y10591D01*
X10472Y10984D02*
Y10722D01*
X10604Y10591D01*
X10735Y10722D01*
Y10984D01*
X10866D02*
Y10591D01*
X11063D01*
X11128Y10656D01*
Y10919D01*
X11063Y10984D01*
X10866D01*
X11522D02*
X11259D01*
Y10787D01*
X11391Y10853D01*
X11456D01*
X11522Y10787D01*
Y10656D01*
X11456Y10591D01*
X11325D01*
X11259Y10656D01*
X10079Y11535D02*
X10341D01*
X10210D01*
Y11142D01*
X10472Y11535D02*
Y11273D01*
X10604Y11142D01*
X10735Y11273D01*
Y11535D01*
X10866D02*
Y11142D01*
X11063D01*
X11128Y11207D01*
Y11470D01*
X11063Y11535D01*
X10866D01*
X11259Y11470D02*
X11325Y11535D01*
X11456D01*
X11522Y11470D01*
Y11404D01*
X11456Y11339D01*
X11391D01*
X11456D01*
X11522Y11273D01*
Y11207D01*
X11456Y11142D01*
X11325D01*
X11259Y11207D01*
X10079Y12165D02*
X10341D01*
X10210D01*
Y11772D01*
X10472Y12165D02*
Y11903D01*
X10604Y11772D01*
X10735Y11903D01*
Y12165D01*
X10866D02*
Y11772D01*
X11063D01*
X11128Y11837D01*
Y12100D01*
X11063Y12165D01*
X10866D01*
X11259Y11772D02*
X11391D01*
X11325D01*
Y12165D01*
X11259Y12100D01*
X10433Y9842D02*
X10695D01*
X10564D01*
Y9449D01*
X10827Y9842D02*
Y9580D01*
X10958Y9449D01*
X11089Y9580D01*
Y9842D01*
X11483Y9777D02*
X11417Y9842D01*
X11286D01*
X11220Y9777D01*
Y9514D01*
X11286Y9449D01*
X11417D01*
X11483Y9514D01*
X11614Y9842D02*
Y9449D01*
X11876D01*
X12007Y9842D02*
Y9449D01*
Y9580D01*
X12270Y9842D01*
X12073Y9646D01*
X12270Y9449D01*
X10971Y8123D02*
X10905Y8189D01*
X10774D01*
X10709Y8123D01*
Y8058D01*
X10774Y7992D01*
X10905D01*
X10971Y7926D01*
Y7861D01*
X10905Y7795D01*
X10774D01*
X10709Y7861D01*
X11102Y7795D02*
Y8189D01*
X11299D01*
X11365Y8123D01*
Y7992D01*
X11299Y7926D01*
X11102D01*
X11496Y7795D02*
Y8189D01*
X11693D01*
X11758Y8123D01*
Y7992D01*
X11693Y7926D01*
X11496D01*
X11627D02*
X11758Y7795D01*
X12086Y8189D02*
X11955D01*
X11889Y8123D01*
Y7861D01*
X11955Y7795D01*
X12086D01*
X12152Y7861D01*
Y8123D01*
X12086Y8189D01*
X11010Y7556D02*
X10945Y7622D01*
X10814D01*
X10748Y7556D01*
Y7490D01*
X10814Y7425D01*
X10945D01*
X11010Y7359D01*
Y7294D01*
X10945Y7228D01*
X10814D01*
X10748Y7294D01*
X11142Y7228D02*
Y7622D01*
X11338D01*
X11404Y7556D01*
Y7425D01*
X11338Y7359D01*
X11142D01*
X11535Y7622D02*
Y7228D01*
X11798D01*
X12126Y7622D02*
X11994D01*
X11929Y7556D01*
Y7294D01*
X11994Y7228D01*
X12126D01*
X12191Y7294D01*
Y7556D01*
X12126Y7622D01*
X12585Y6745D02*
X12520Y6811D01*
X12388D01*
X12323Y6745D01*
Y6680D01*
X12388Y6614D01*
X12520D01*
X12585Y6549D01*
Y6483D01*
X12520Y6417D01*
X12388D01*
X12323Y6483D01*
X12979Y6745D02*
X12913Y6811D01*
X12782D01*
X12716Y6745D01*
Y6483D01*
X12782Y6417D01*
X12913D01*
X12979Y6483D01*
Y6614D01*
X12848D01*
X4751Y4856D02*
X4685Y4921D01*
X4554D01*
X4488Y4856D01*
Y4593D01*
X4554Y4528D01*
X4685D01*
X4751Y4593D01*
X4882Y4921D02*
Y4659D01*
X5013Y4528D01*
X5144Y4659D01*
Y4921D01*
X5275D02*
Y4528D01*
X5472D01*
X5538Y4593D01*
Y4659D01*
X5472Y4724D01*
X5275D01*
X5472D01*
X5538Y4790D01*
Y4856D01*
X5472Y4921D01*
X5275D01*
X5931Y4856D02*
X5866Y4921D01*
X5735D01*
X5669Y4856D01*
Y4790D01*
X5735Y4724D01*
X5866D01*
X5931Y4659D01*
Y4593D01*
X5866Y4528D01*
X5735D01*
X5669Y4593D01*
D46*
X-4929Y19291D02*
X0D01*
X-4929Y0D02*
X-197D01*
X-4829Y11045D02*
Y19291D01*
Y0D02*
Y7926D01*
X-5029Y18691D02*
X-4829Y19291D01*
X-4629Y18691D01*
X-4829Y0D02*
X-4629Y600D01*
X-5029D02*
X-4829Y0D01*
X14961Y-2803D02*
Y53D01*
X0Y-2803D02*
Y0D01*
X8880Y-2703D02*
X14961D01*
X0D02*
X5761D01*
X14361Y-2503D02*
X14961Y-2703D01*
X14361Y-2903D02*
X14961Y-2703D01*
X0D02*
X600Y-2903D01*
X0Y-2703D02*
X600Y-2503D01*
D47*
X13213Y12937D02*
X13952D01*
X13213Y12740D02*
Y12937D01*
Y7031D02*
X13952D01*
X13213D02*
Y7228D01*
X-19Y7195D02*
X-19Y6860D01*
X-19Y7195D02*
X-19Y6860D01*
X3918Y6226D02*
X3919Y7195D01*
X3918Y6226D02*
X3919Y7195D01*
X3918Y4226D02*
X3919Y3226D01*
X3918Y4226D02*
X3919Y3226D01*
X-19Y3258D02*
X-19Y3593D01*
X-19Y3258D02*
X-19Y3593D01*
X-19Y7195D02*
X3919D01*
X-19D02*
X3919D01*
X-19Y3258D02*
X3919D01*
X-19D02*
X3919D01*
X-3759Y3593D02*
Y6860D01*
Y3593D02*
X-19D01*
Y6860D01*
X-3759D02*
X-19D01*
X-19Y11575D02*
X-19Y11910D01*
X-19Y11575D02*
X-19Y11910D01*
X3918Y10941D02*
Y11910D01*
Y10941D02*
Y11910D01*
Y7941D02*
Y8941D01*
Y7941D02*
Y8941D01*
X-19Y8308D02*
X-19Y7973D01*
X-19Y8308D02*
X-19Y7973D01*
Y11910D02*
X3918D01*
X-19D02*
X3918D01*
X-19Y7973D02*
X3918D01*
X-19D02*
X3918D01*
X-3759Y8308D02*
Y11575D01*
Y8308D02*
X-19D01*
Y11575D01*
X-3759D02*
X-19D01*
Y16340D02*
X-19Y16675D01*
X-19Y16340D02*
X-19Y16675D01*
X3918Y15706D02*
Y16675D01*
Y15706D02*
Y16675D01*
Y12706D02*
Y13706D01*
Y12706D02*
Y13706D01*
X-19Y13072D02*
X-19Y12738D01*
X-19Y13072D02*
X-19Y12738D01*
Y16675D02*
X3918D01*
X-19D02*
X3918D01*
X-19Y12738D02*
X3918D01*
X-19D02*
X3918D01*
X-3759Y13072D02*
Y16340D01*
Y13072D02*
X-19D01*
Y16340D01*
X-3759D02*
X-19D01*
D48*
X6508Y9887D02*
Y11458D01*
X9949Y9887D02*
Y11458D01*
D49*
X-4369Y8386D02*
X-4969D01*
X-4669Y8086D01*
Y8486D01*
X-4469Y8686D02*
X-4369Y8786D01*
Y8986D01*
X-4469Y9086D01*
X-4869D01*
X-4969Y8986D01*
Y8786D01*
X-4869Y8686D01*
X-4769D01*
X-4669Y8786D01*
Y9086D01*
X-4269Y9386D02*
X-4369Y9486D01*
X-4469D01*
Y9386D01*
X-4369D01*
Y9486D01*
X-4269Y9386D01*
X-4169Y9286D01*
X-4869Y9886D02*
X-4969Y9986D01*
Y10185D01*
X-4869Y10285D01*
X-4469D01*
X-4369Y10185D01*
Y9986D01*
X-4469Y9886D01*
X-4869D01*
Y10485D02*
X-4969Y10585D01*
Y10785D01*
X-4869Y10885D01*
X-4469D01*
X-4369Y10785D01*
Y10585D01*
X-4469Y10485D01*
X-4869D01*
X5921Y-2663D02*
X6021Y-2563D01*
X6221D01*
X6321Y-2663D01*
Y-2763D01*
X6221Y-2863D01*
X6121D01*
X6221D01*
X6321Y-2963D01*
Y-3063D01*
X6221Y-3163D01*
X6021D01*
X5921Y-3063D01*
X6521Y-2663D02*
X6621Y-2563D01*
X6820D01*
X6920Y-2663D01*
Y-2763D01*
X6820Y-2863D01*
X6920Y-2963D01*
Y-3063D01*
X6820Y-3163D01*
X6621D01*
X6521Y-3063D01*
Y-2963D01*
X6621Y-2863D01*
X6521Y-2763D01*
Y-2663D01*
X6621Y-2863D02*
X6820D01*
X7220Y-3263D02*
X7320Y-3163D01*
Y-3063D01*
X7220D01*
Y-3163D01*
X7320D01*
X7220Y-3263D01*
X7120Y-3363D01*
X7720Y-2663D02*
X7820Y-2563D01*
X8020D01*
X8120Y-2663D01*
Y-3063D01*
X8020Y-3163D01*
X7820D01*
X7720Y-3063D01*
Y-2663D01*
X8320D02*
X8420Y-2563D01*
X8620D01*
X8720Y-2663D01*
Y-3063D01*
X8620Y-3163D01*
X8420D01*
X8320Y-3063D01*
Y-2663D01*
M02*
