G04 Layer_Physical_Order=1*
G04 Layer_Color=255*
%FSLAX24Y24*%
%MOIN*%
G70*
G01*
G75*
%ADD10R,0.0374X0.0157*%
%ADD11R,0.0315X0.0118*%
%ADD12R,0.0256X0.0118*%
%ADD13R,0.0472X0.0984*%
%ADD14R,0.0374X0.0571*%
%ADD15R,0.0433X0.0571*%
%ADD16R,0.0571X0.0433*%
G04:AMPARAMS|DCode=17|XSize=64.6mil|YSize=16.1mil|CornerRadius=2mil|HoleSize=0mil|Usage=FLASHONLY|Rotation=90.000|XOffset=0mil|YOffset=0mil|HoleType=Round|Shape=RoundedRectangle|*
%AMROUNDEDRECTD17*
21,1,0.0646,0.0121,0,0,90.0*
21,1,0.0605,0.0161,0,0,90.0*
1,1,0.0040,0.0061,0.0303*
1,1,0.0040,0.0061,-0.0303*
1,1,0.0040,-0.0061,-0.0303*
1,1,0.0040,-0.0061,0.0303*
%
%ADD17ROUNDEDRECTD17*%
%ADD18R,0.0600X0.0256*%
%ADD19R,0.0315X0.0669*%
%ADD20O,0.0394X0.0197*%
%ADD21R,0.0354X0.0551*%
%ADD22C,0.0315*%
%ADD23C,0.0118*%
%ADD24C,0.0079*%
%ADD25C,0.0197*%
%ADD26C,0.0157*%
%ADD27C,0.0315*%
%ADD28C,0.0236*%
%ADD29C,0.1417*%
%ADD30R,0.1482X0.1482*%
%ADD31C,0.0551*%
%ADD32C,0.1968*%
%ADD33C,0.0236*%
G36*
X12987Y10633D02*
X13213D01*
Y10515D01*
X12987D01*
Y10479D01*
X12897D01*
X12843Y10468D01*
X12798Y10438D01*
X12612Y10251D01*
X12559Y10258D01*
X12492Y10249D01*
X12430Y10224D01*
X12377Y10183D01*
X12344Y10140D01*
X11417D01*
X11364Y10130D01*
X11318Y10099D01*
X10414Y9196D01*
X9804D01*
X9768Y9274D01*
X9776Y9286D01*
X9785Y9332D01*
Y9938D01*
X9776Y9984D01*
X9749Y10023D01*
X9781Y10094D01*
X10060Y10373D01*
X10079Y10370D01*
X10163Y10387D01*
X10235Y10434D01*
X10283Y10506D01*
X10300Y10591D01*
X10296Y10609D01*
X10346Y10670D01*
X11241D01*
X11456Y10455D01*
X11501Y10425D01*
X11555Y10414D01*
X11793D01*
X11825Y10372D01*
X11879Y10331D01*
X11941Y10305D01*
X12008Y10297D01*
X12075Y10305D01*
X12137Y10331D01*
X12190Y10372D01*
X12223Y10414D01*
X12248D01*
X12301Y10425D01*
X12347Y10455D01*
X12562Y10670D01*
X12987D01*
Y10633D01*
D02*
G37*
G36*
X14840Y10201D02*
Y7862D01*
X14784Y7832D01*
X14761Y7827D01*
X14685Y7842D01*
X14662Y7838D01*
X14602Y7888D01*
Y8252D01*
X14602D01*
Y8409D01*
X14602D01*
Y8724D01*
X14602D01*
Y8744D01*
X14346D01*
X14090D01*
Y8645D01*
X14090D01*
Y8502D01*
X14051Y8468D01*
X14011Y8455D01*
X13937Y8469D01*
X13870Y8456D01*
X13787Y8470D01*
X13739Y8542D01*
X13667Y8590D01*
X13583Y8607D01*
X13519Y8594D01*
X13509Y8595D01*
X13461Y8625D01*
X13440Y8645D01*
Y9236D01*
Y9334D01*
X13213D01*
X12987D01*
Y9000D01*
Y8527D01*
Y8507D01*
X13213D01*
Y8389D01*
X12987D01*
Y8244D01*
X12926Y8194D01*
X12913Y8197D01*
X12829Y8180D01*
X12764Y8137D01*
X12719D01*
X12702Y8159D01*
X12649Y8200D01*
X12586Y8225D01*
X12520Y8234D01*
X12453Y8225D01*
X12391Y8200D01*
X12337Y8159D01*
X12296Y8105D01*
X12270Y8043D01*
X12262Y7976D01*
X12270Y7909D01*
X12296Y7847D01*
X12337Y7793D01*
X12342Y7789D01*
Y7690D01*
X12337Y7686D01*
X12296Y7633D01*
X12270Y7570D01*
X12262Y7504D01*
X12270Y7437D01*
X12296Y7374D01*
X12337Y7321D01*
X12391Y7280D01*
X12453Y7254D01*
X12520Y7245D01*
X12586Y7254D01*
X12649Y7280D01*
X12702Y7321D01*
X12719Y7343D01*
X12780D01*
X12845Y7300D01*
X12930Y7283D01*
X13014Y7300D01*
X13079Y7343D01*
X13658D01*
X13729Y7272D01*
X13729Y7272D01*
X13781Y7237D01*
X13843Y7225D01*
X13952D01*
Y7169D01*
X14237D01*
X14523D01*
Y7228D01*
X14602D01*
Y7355D01*
X14662Y7405D01*
X14685Y7401D01*
X14761Y7416D01*
X14784Y7412D01*
X14840Y7381D01*
Y1655D01*
X14761Y1640D01*
X14747Y1674D01*
X14658Y1819D01*
X14547Y1949D01*
X14418Y2060D01*
X14273Y2149D01*
X14115Y2214D01*
X13949Y2254D01*
X13780Y2267D01*
X13610Y2254D01*
X13444Y2214D01*
X13286Y2149D01*
X13141Y2060D01*
X13012Y1949D01*
X12901Y1819D01*
X12812Y1674D01*
X12747Y1517D01*
X12707Y1351D01*
X12694Y1181D01*
X12707Y1011D01*
X12747Y846D01*
X12812Y688D01*
X12874Y587D01*
X12704Y418D01*
X10551D01*
Y4922D01*
X10592D01*
Y5690D01*
X10535D01*
Y6470D01*
X12230Y8164D01*
X12271Y8217D01*
X12297Y8280D01*
X12305Y8346D01*
Y9055D01*
X12297Y9122D01*
X12271Y9184D01*
X12230Y9238D01*
X12176Y9279D01*
X12114Y9304D01*
X12047Y9313D01*
X11980Y9304D01*
X11918Y9279D01*
X11865Y9238D01*
X11824Y9184D01*
X11798Y9122D01*
X11789Y9055D01*
Y8453D01*
X10095Y6759D01*
X10054Y6706D01*
X10028Y6643D01*
X10019Y6576D01*
Y5950D01*
X9946Y5920D01*
X8419Y7447D01*
X8449Y7520D01*
X8730D01*
Y7776D01*
X8346D01*
Y7835D01*
X8287D01*
Y8150D01*
X8268D01*
Y8228D01*
X8730D01*
Y8363D01*
X8891D01*
Y8228D01*
X9659D01*
Y8363D01*
X9737D01*
X9739Y8361D01*
X9792Y8320D01*
X9854Y8294D01*
X9921Y8285D01*
X9988Y8294D01*
X10050Y8320D01*
X10104Y8361D01*
X10105Y8363D01*
X10472D01*
X10542Y8376D01*
X10600Y8416D01*
X10870Y8685D01*
X10911Y8694D01*
X10983Y8742D01*
X11031Y8813D01*
X11048Y8898D01*
X11031Y8982D01*
X10983Y9054D01*
X10911Y9102D01*
X10843Y9115D01*
X10818Y9161D01*
X10812Y9196D01*
X11476Y9860D01*
X12344D01*
X12377Y9817D01*
X12430Y9776D01*
X12492Y9751D01*
X12559Y9742D01*
X12626Y9751D01*
X12688Y9776D01*
X12742Y9817D01*
X12783Y9871D01*
X12808Y9933D01*
X12817Y10000D01*
X12810Y10053D01*
X12908Y10151D01*
X12987Y10118D01*
Y9944D01*
Y9472D01*
Y9452D01*
X13213D01*
X13440D01*
Y9708D01*
Y9953D01*
X13506Y10013D01*
X13587Y10010D01*
X13712Y9885D01*
X13758Y9854D01*
X13812Y9843D01*
X14090D01*
Y9669D01*
X14090D01*
Y9354D01*
X14090D01*
Y9196D01*
X14090D01*
Y8881D01*
Y8862D01*
X14346D01*
X14602D01*
Y9118D01*
X14602D01*
Y9433D01*
X14602D01*
Y9590D01*
X14602D01*
Y9826D01*
Y10141D01*
X14638Y10205D01*
X14680Y10240D01*
X14701Y10236D01*
X14761Y10248D01*
X14840Y10201D01*
D02*
G37*
G36*
X5739Y13907D02*
Y13727D01*
X5749Y13673D01*
X5780Y13628D01*
X6024Y13384D01*
Y13049D01*
X5994Y12982D01*
X5423D01*
Y12215D01*
X5394Y12203D01*
Y11435D01*
X5394D01*
X5423Y11401D01*
Y10703D01*
X5423Y10682D01*
X5402Y10667D01*
X5365Y10654D01*
D01*
X5364Y10654D01*
Y10654D01*
X5326Y10662D01*
Y10551D01*
Y10443D01*
X5361Y10466D01*
X5387Y10505D01*
X5388Y10513D01*
X5410Y10586D01*
Y10586D01*
X5410Y10586D01*
X5410Y10586D01*
X5448Y10630D01*
X5454Y10633D01*
X5478Y10633D01*
Y10633D01*
X5482Y10633D01*
X5994D01*
Y10856D01*
X6388D01*
X6850Y10394D01*
X6899D01*
X6943Y10350D01*
Y10082D01*
X6914Y10059D01*
X6793D01*
X6747Y10049D01*
X6707Y10023D01*
X6681Y9984D01*
X6672Y9938D01*
Y9816D01*
X6480D01*
X6365Y9931D01*
X6306Y9970D01*
X6237Y9984D01*
X6193D01*
Y10118D01*
X5425D01*
Y9488D01*
X6193D01*
Y9489D01*
X6266Y9519D01*
X6277Y9507D01*
X6336Y9468D01*
X6405Y9454D01*
X6672D01*
Y9332D01*
X6681Y9286D01*
X6707Y9247D01*
X6747Y9221D01*
X6793Y9211D01*
X6853D01*
X6897Y9144D01*
X6898Y9133D01*
X6883Y9055D01*
X6899Y8971D01*
X6947Y8899D01*
X7019Y8851D01*
X7103Y8834D01*
X7188Y8851D01*
X7249Y8892D01*
X7279Y8892D01*
X7296Y8889D01*
X7339Y8877D01*
X7356Y8852D01*
X7391Y8828D01*
Y8937D01*
Y9050D01*
X7342Y9077D01*
X7327Y9144D01*
X7378Y9211D01*
X7414D01*
X7460Y9221D01*
X7491Y9241D01*
X7673Y9059D01*
Y8724D01*
X6435D01*
X6193Y8966D01*
Y9409D01*
X5425D01*
Y8780D01*
X5869D01*
X6232Y8416D01*
X6291Y8376D01*
X6360Y8363D01*
X7953D01*
Y7480D01*
X8420Y7013D01*
X8390Y6940D01*
X8257D01*
Y6397D01*
X8113Y6253D01*
X8040Y6284D01*
Y6940D01*
X7490D01*
Y6959D01*
X6919D01*
Y6191D01*
X7469D01*
Y6172D01*
X7594D01*
Y5572D01*
X7396Y5374D01*
X7315D01*
X7262Y5427D01*
X7262Y5484D01*
X7262Y5516D01*
Y5937D01*
X6465D01*
Y5516D01*
X6465Y5437D01*
X6465Y5406D01*
Y5016D01*
X6465Y4937D01*
X6465Y4906D01*
Y4484D01*
X7262D01*
X7262Y4484D01*
X7341Y4516D01*
X7402Y4504D01*
X7486Y4520D01*
X7558Y4568D01*
X7606Y4640D01*
X7622Y4724D01*
X7606Y4809D01*
X7558Y4881D01*
X7486Y4928D01*
X7402Y4945D01*
X7341Y4933D01*
X7339Y4933D01*
X7285Y5003D01*
X7288Y5012D01*
X7327Y5050D01*
X7460D01*
X7460Y5050D01*
X7521Y5062D01*
X7573Y5097D01*
X7868Y5392D01*
X7868Y5392D01*
X7871Y5396D01*
X7950Y5372D01*
Y4724D01*
X7950Y4724D01*
X7950Y4724D01*
Y3749D01*
X7826Y3625D01*
X7302D01*
X7278Y3704D01*
X7284Y3708D01*
X7307Y3743D01*
X7090D01*
X7113Y3708D01*
X7119Y3704D01*
X7095Y3625D01*
X6987D01*
Y3848D01*
X6416D01*
Y3081D01*
X6987D01*
Y3304D01*
X7893D01*
X7893Y3304D01*
X7954Y3316D01*
X8006Y3351D01*
X8224Y3569D01*
X8224Y3569D01*
X8259Y3621D01*
X8271Y3682D01*
X8271Y3682D01*
Y4550D01*
X8545D01*
X8601Y4494D01*
X8601Y4437D01*
X8601Y4406D01*
Y3984D01*
X9120D01*
X9128Y3906D01*
X9121Y3904D01*
X9082Y3878D01*
X9058Y3843D01*
X9276D01*
X9252Y3878D01*
X9213Y3904D01*
X9206Y3906D01*
X9214Y3984D01*
X9398D01*
Y4406D01*
X9398Y4484D01*
X9398Y4516D01*
Y4937D01*
X9398Y4937D01*
X9412Y5010D01*
X9563D01*
Y4753D01*
X9578Y4676D01*
X9622Y4611D01*
X9756Y4477D01*
X9761Y4439D01*
X9787Y4377D01*
X9828Y4324D01*
X9882Y4283D01*
X9944Y4257D01*
X10011Y4248D01*
X10077Y4257D01*
X10140Y4283D01*
X10156Y4295D01*
X10235Y4256D01*
Y418D01*
X2047D01*
X2014Y489D01*
X2060Y543D01*
X2149Y688D01*
X2214Y846D01*
X2254Y1011D01*
X2267Y1181D01*
X2254Y1351D01*
X2214Y1517D01*
X2149Y1674D01*
X2208Y1729D01*
X2227Y1716D01*
Y1824D01*
Y1933D01*
X2192Y1910D01*
X2166Y1870D01*
X2157Y1824D01*
X2160Y1806D01*
X2086Y1777D01*
X2060Y1819D01*
X1949Y1949D01*
X1819Y2060D01*
X1674Y2149D01*
X1517Y2214D01*
X1351Y2254D01*
X1181Y2267D01*
X1126Y2318D01*
Y3688D01*
X1205Y3712D01*
X1208Y3708D01*
X1243Y3684D01*
Y3793D01*
Y3902D01*
X1208Y3878D01*
X1205Y3874D01*
X1126Y3898D01*
Y3916D01*
X1109Y4001D01*
X1062Y4073D01*
X598Y4536D01*
Y5916D01*
X1062Y6379D01*
X1109Y6451D01*
X1126Y6535D01*
Y7625D01*
X1205Y7649D01*
X1208Y7645D01*
X1243Y7621D01*
Y7730D01*
Y7839D01*
X1208Y7815D01*
X1205Y7811D01*
X1126Y7835D01*
Y8654D01*
X1109Y8739D01*
X1062Y8810D01*
X843Y9029D01*
X873Y9102D01*
X2396D01*
Y10781D01*
X811D01*
X778Y10860D01*
X1219Y11301D01*
X1267Y11372D01*
X1284Y11457D01*
Y13179D01*
X1267Y13263D01*
X1219Y13335D01*
X766Y13788D01*
X799Y13867D01*
X2396D01*
Y15546D01*
X882D01*
X852Y15619D01*
X1337Y16104D01*
X1385Y16175D01*
X1394Y16220D01*
X3425D01*
X5739Y13907D01*
D02*
G37*
G36*
X12874Y18704D02*
X12812Y18603D01*
X12747Y18446D01*
X12707Y18280D01*
X12694Y18110D01*
X12707Y17940D01*
X12747Y17775D01*
X12812Y17617D01*
X12901Y17472D01*
X13012Y17342D01*
X13141Y17232D01*
X13286Y17143D01*
X13444Y17077D01*
X13610Y17038D01*
X13780Y17024D01*
X13949Y17038D01*
X14115Y17077D01*
X14273Y17143D01*
X14418Y17232D01*
X14547Y17342D01*
X14658Y17472D01*
X14747Y17617D01*
X14761Y17652D01*
X14840Y17636D01*
Y12365D01*
X14761Y12319D01*
X14701Y12331D01*
X14680Y12326D01*
X14602Y12391D01*
Y12740D01*
X14523D01*
Y12799D01*
X14237D01*
Y12858D01*
X14178D01*
Y13035D01*
X13952D01*
X13920Y13101D01*
Y14327D01*
X13909Y14381D01*
X13879Y14426D01*
X12891Y15414D01*
X12845Y15445D01*
X12791Y15455D01*
X10767D01*
X10593Y15629D01*
Y16791D01*
X10583Y16845D01*
X10552Y16891D01*
X10046Y17397D01*
Y17559D01*
X10162D01*
Y18425D01*
X9650D01*
Y17559D01*
X9765D01*
Y17338D01*
X9776Y17285D01*
X9806Y17239D01*
X10312Y16733D01*
Y15571D01*
X10318Y15544D01*
X10245Y15505D01*
X10109Y15641D01*
X10139Y15713D01*
X10147D01*
Y16579D01*
X9635D01*
Y15713D01*
X9751D01*
Y15660D01*
X9762Y15606D01*
X9792Y15560D01*
X10097Y15256D01*
X10071Y15170D01*
X10064Y15169D01*
X10019Y15139D01*
X9789Y14909D01*
X9759Y14864D01*
X9748Y14810D01*
Y14724D01*
X9633D01*
Y13858D01*
X10145D01*
Y14724D01*
X10113D01*
X10081Y14803D01*
X10176Y14899D01*
X12619D01*
X13363Y14154D01*
Y12622D01*
X12987D01*
Y12307D01*
Y12287D01*
X13213D01*
Y12169D01*
X12987D01*
Y12070D01*
Y11660D01*
X12650D01*
X12573Y11737D01*
X12528Y11767D01*
X12474Y11778D01*
X12042D01*
X12010Y11820D01*
X11957Y11861D01*
X11894Y11887D01*
X11828Y11896D01*
X11761Y11887D01*
X11699Y11861D01*
X11645Y11820D01*
X11613Y11778D01*
X11348D01*
X11337Y11794D01*
X11266Y11841D01*
X11181Y11858D01*
X11097Y11841D01*
X11025Y11794D01*
X10977Y11722D01*
X10960Y11637D01*
X10977Y11553D01*
X11025Y11481D01*
X11097Y11433D01*
X11181Y11417D01*
X11222Y11344D01*
X11206Y11322D01*
X10735D01*
X10669Y11353D01*
X10665Y11400D01*
X10671Y11401D01*
X10714Y11410D01*
X10786Y11458D01*
X10834Y11530D01*
X10851Y11614D01*
X10834Y11699D01*
X10786Y11770D01*
X10714Y11818D01*
X10630Y11835D01*
X10545Y11818D01*
X10474Y11770D01*
X10426Y11699D01*
X10409Y11614D01*
X10426Y11530D01*
X10474Y11458D01*
X10545Y11410D01*
X10589Y11401D01*
X10595Y11400D01*
X10590Y11353D01*
X10525Y11322D01*
X9842D01*
X9833Y11327D01*
X9783Y11400D01*
X9785Y11407D01*
Y12013D01*
X9776Y12059D01*
X9771Y12066D01*
X9807Y12120D01*
X9824Y12205D01*
X9807Y12289D01*
X9759Y12361D01*
X9688Y12409D01*
X9603Y12426D01*
X9519Y12409D01*
X9447Y12361D01*
X9399Y12289D01*
X9383Y12205D01*
X9385Y12194D01*
X9335Y12133D01*
X9293D01*
X9247Y12124D01*
X9228Y12112D01*
X9210Y12124D01*
X9164Y12133D01*
X9043D01*
X8997Y12124D01*
X8978Y12112D01*
X8960Y12124D01*
X8914Y12133D01*
X8793D01*
X8747Y12124D01*
X8728Y12112D01*
X8710Y12124D01*
X8664Y12133D01*
X8543D01*
X8497Y12124D01*
X8478Y12112D01*
X8460Y12124D01*
X8414Y12133D01*
X8293D01*
X8247Y12124D01*
X8228Y12112D01*
X8210Y12124D01*
X8164Y12133D01*
X8043D01*
X7997Y12124D01*
X7978Y12112D01*
X7960Y12124D01*
X7914Y12133D01*
X7793D01*
X7784Y12141D01*
Y12732D01*
X7962D01*
Y12846D01*
X8157D01*
Y12727D01*
X8925D01*
Y12841D01*
X9394D01*
X9399Y12838D01*
X9483Y12821D01*
X9568Y12838D01*
X9639Y12886D01*
X9687Y12958D01*
X9704Y13042D01*
X9687Y13127D01*
X9639Y13198D01*
X9568Y13246D01*
X9483Y13263D01*
X9399Y13246D01*
X9394Y13243D01*
X8925D01*
Y13357D01*
X8157D01*
Y13248D01*
X7962D01*
Y13362D01*
X7195D01*
Y12732D01*
X7423D01*
Y12141D01*
X7414Y12133D01*
X7412D01*
Y11710D01*
Y11286D01*
X7414D01*
X7460Y11295D01*
X7478Y11308D01*
X7497Y11295D01*
X7543Y11286D01*
X7664D01*
X7713Y11216D01*
Y11140D01*
X7697Y11130D01*
X7649Y11058D01*
X7633Y10973D01*
X7649Y10889D01*
X7697Y10817D01*
X7769Y10769D01*
X7853Y10753D01*
X7938Y10769D01*
X8009Y10817D01*
X8057Y10889D01*
X8074Y10973D01*
X8098Y10977D01*
X8103Y10976D01*
X8188Y10993D01*
X8242Y10935D01*
X8254Y10917D01*
X8460Y10711D01*
X8506Y10681D01*
X8559Y10670D01*
X9339D01*
X9389Y10609D01*
X9385Y10591D01*
X9389Y10572D01*
X9254Y10437D01*
X9224Y10391D01*
X9213Y10338D01*
Y10129D01*
X9164Y10059D01*
X9162D01*
Y9635D01*
X9044D01*
Y10059D01*
X9043D01*
X8997Y10049D01*
X8978Y10037D01*
X8960Y10049D01*
X8914Y10059D01*
X8793D01*
X8747Y10049D01*
X8728Y10037D01*
X8710Y10049D01*
X8664Y10059D01*
X8543D01*
X8497Y10049D01*
X8478Y10037D01*
X8460Y10049D01*
X8414Y10059D01*
X8369D01*
X8350Y10081D01*
X8319Y10137D01*
X8331Y10197D01*
X8315Y10274D01*
X8272Y10339D01*
X8207Y10382D01*
X8130Y10398D01*
X7933D01*
X7922Y10395D01*
X7912Y10398D01*
X7910D01*
X7598Y10709D01*
X7038D01*
X6616Y11130D01*
X6564Y11165D01*
X6503Y11177D01*
X6503Y11177D01*
X6500D01*
X6339Y11339D01*
Y11549D01*
X6672D01*
Y11407D01*
X6681Y11361D01*
X6707Y11322D01*
X6747Y11295D01*
X6793Y11286D01*
X6914D01*
X6960Y11295D01*
X6978Y11308D01*
X6997Y11295D01*
X7043Y11286D01*
X7164D01*
X7210Y11295D01*
X7228Y11308D01*
X7247Y11295D01*
X7293Y11286D01*
X7294D01*
Y11710D01*
Y12156D01*
X7273Y12178D01*
X7260Y12207D01*
X7252Y12249D01*
X7217Y12302D01*
X7217Y12302D01*
X6806Y12712D01*
X6754Y12747D01*
X6693Y12759D01*
X6693Y12759D01*
X6339D01*
Y12858D01*
X6417Y12900D01*
X6418Y12899D01*
X6503Y12883D01*
X6587Y12899D01*
X6659Y12947D01*
X6707Y13019D01*
X6724Y13103D01*
X6707Y13188D01*
X6659Y13259D01*
X6587Y13307D01*
X6503Y13324D01*
X6485Y13320D01*
X6339Y13466D01*
Y13740D01*
X6020Y14059D01*
Y15472D01*
X6165D01*
Y16240D01*
X6165D01*
X6135Y16312D01*
X6247Y16424D01*
X6286Y16483D01*
X6300Y16552D01*
Y16732D01*
X6454D01*
Y17913D01*
X5784D01*
Y16732D01*
X5938D01*
Y16627D01*
X5751Y16440D01*
X5712Y16381D01*
X5699Y16312D01*
Y16240D01*
X5594D01*
Y15472D01*
X5739D01*
Y14443D01*
X5666Y14413D01*
X3504Y16575D01*
X1402D01*
Y17050D01*
X1517Y17077D01*
X1674Y17143D01*
X1819Y17232D01*
X1949Y17342D01*
X2060Y17472D01*
X2149Y17617D01*
X2214Y17775D01*
X2246Y17910D01*
X2370D01*
X2380Y17912D01*
X2391Y17910D01*
X2588D01*
X2665Y17925D01*
X2730Y17968D01*
X2773Y18033D01*
X2788Y18110D01*
X2773Y18187D01*
X2730Y18252D01*
X2665Y18296D01*
X2588Y18311D01*
X2391D01*
X2380Y18309D01*
X2370Y18311D01*
X2246D01*
X2214Y18446D01*
X2149Y18603D01*
X2087Y18704D01*
X2162Y18779D01*
X4523D01*
X4550Y18700D01*
X4514Y18672D01*
X4454Y18594D01*
X4416Y18503D01*
X4403Y18406D01*
X4416Y18308D01*
X4454Y18217D01*
X4514Y18139D01*
X4592Y18079D01*
X4683Y18041D01*
X4780Y18028D01*
X4878Y18041D01*
X4969Y18079D01*
X5047Y18139D01*
X5107Y18217D01*
X5145Y18308D01*
X5158Y18406D01*
X5145Y18503D01*
X5107Y18594D01*
X5047Y18672D01*
X5011Y18700D01*
X5038Y18779D01*
X7200D01*
X7227Y18700D01*
X7191Y18672D01*
X7131Y18594D01*
X7093Y18503D01*
X7080Y18406D01*
X7093Y18308D01*
X7131Y18217D01*
X7191Y18139D01*
X7269Y18079D01*
X7360Y18041D01*
X7457Y18028D01*
X7555Y18041D01*
X7646Y18079D01*
X7724Y18139D01*
X7784Y18217D01*
X7822Y18308D01*
X7835Y18406D01*
X7822Y18503D01*
X7784Y18594D01*
X7724Y18672D01*
X7688Y18700D01*
X7715Y18779D01*
X12799D01*
X12874Y18704D01*
D02*
G37*
%LPC*%
G36*
X12559Y6360D02*
X12492Y6352D01*
X12430Y6326D01*
X12400Y6303D01*
X12294D01*
X12289Y6306D01*
X12205Y6323D01*
X12120Y6306D01*
X12049Y6258D01*
X12001Y6187D01*
X11984Y6102D01*
X12001Y6018D01*
X12049Y5946D01*
X12120Y5898D01*
X12205Y5882D01*
X12289Y5898D01*
X12294Y5902D01*
X12400D01*
X12430Y5879D01*
X12492Y5853D01*
X12559Y5844D01*
X12626Y5853D01*
X12688Y5879D01*
X12742Y5920D01*
X12783Y5973D01*
X12808Y6036D01*
X12817Y6102D01*
X12808Y6169D01*
X12783Y6231D01*
X12742Y6285D01*
X12688Y6326D01*
X12626Y6352D01*
X12559Y6360D01*
D02*
G37*
G36*
X14459Y6683D02*
X13888D01*
Y5915D01*
X13890D01*
X13954Y5837D01*
X13952Y5827D01*
X13969Y5742D01*
X14017Y5671D01*
X14089Y5623D01*
X14173Y5606D01*
X14258Y5623D01*
X14329Y5671D01*
X14377Y5742D01*
X14394Y5827D01*
X14392Y5837D01*
X14457Y5915D01*
X14459D01*
Y6683D01*
D02*
G37*
G36*
X13671D02*
X13100D01*
Y5915D01*
X13225D01*
Y5701D01*
X13182Y5636D01*
X13165Y5551D01*
X13182Y5467D01*
X13230Y5395D01*
X13301Y5347D01*
X13386Y5330D01*
X13470Y5347D01*
X13542Y5395D01*
X13590Y5467D01*
X13607Y5551D01*
X13590Y5636D01*
X13546Y5701D01*
Y5915D01*
X13671D01*
Y6683D01*
D02*
G37*
G36*
X10927Y5690D02*
X10671D01*
Y5365D01*
X10927D01*
Y5690D01*
D02*
G37*
G36*
X11301D02*
X11045D01*
Y5365D01*
X11301D01*
Y5690D01*
D02*
G37*
G36*
X10927Y5247D02*
X10671D01*
Y4922D01*
X10927D01*
Y5247D01*
D02*
G37*
G36*
X11301D02*
X11045D01*
Y4922D01*
X11301D01*
Y5247D01*
D02*
G37*
G36*
X8730Y8150D02*
X8406D01*
Y7894D01*
X8730D01*
Y8150D01*
D02*
G37*
G36*
X9216D02*
X8891D01*
Y7894D01*
X9216D01*
Y8150D01*
D02*
G37*
G36*
X9659D02*
X9334D01*
Y7894D01*
X9659D01*
Y8150D01*
D02*
G37*
G36*
X14178Y7051D02*
X13952D01*
Y6933D01*
X14178D01*
Y7051D01*
D02*
G37*
G36*
X14523D02*
X14296D01*
Y6933D01*
X14523D01*
Y7051D01*
D02*
G37*
G36*
X9216Y7776D02*
X8891D01*
Y7520D01*
X9216D01*
Y7776D01*
D02*
G37*
G36*
X9659D02*
X9334D01*
Y7520D01*
X9659D01*
Y7776D01*
D02*
G37*
G36*
X2719Y2917D02*
X2684Y2894D01*
X2661Y2859D01*
X2719D01*
Y2917D01*
D02*
G37*
G36*
X3704D02*
X3668Y2894D01*
X3645Y2859D01*
X3704D01*
Y2917D01*
D02*
G37*
G36*
X2819D02*
Y2859D01*
X2878D01*
X2854Y2894D01*
X2819Y2917D01*
D02*
G37*
G36*
X9768Y2759D02*
X9709D01*
Y2700D01*
X9744Y2723D01*
X9768Y2759D01*
D02*
G37*
G36*
X9609D02*
X9550D01*
X9574Y2723D01*
X9609Y2700D01*
Y2759D01*
D02*
G37*
G36*
X1835Y2917D02*
Y2859D01*
X1894D01*
X1870Y2894D01*
X1835Y2917D01*
D02*
G37*
G36*
X1735D02*
X1700Y2894D01*
X1676Y2859D01*
X1735D01*
Y2917D01*
D02*
G37*
G36*
X4788D02*
Y2859D01*
X4846D01*
X4823Y2894D01*
X4788Y2917D01*
D02*
G37*
G36*
X5672D02*
X5637Y2894D01*
X5613Y2859D01*
X5672D01*
Y2917D01*
D02*
G37*
G36*
X5772D02*
Y2859D01*
X5831D01*
X5807Y2894D01*
X5772Y2917D01*
D02*
G37*
G36*
X4688D02*
X4653Y2894D01*
X4629Y2859D01*
X4688D01*
Y2917D01*
D02*
G37*
G36*
X6756D02*
Y2859D01*
X6815D01*
X6791Y2894D01*
X6756Y2917D01*
D02*
G37*
G36*
X6656D02*
X6621Y2894D01*
X6598Y2859D01*
X6656D01*
Y2917D01*
D02*
G37*
G36*
X3804D02*
Y2859D01*
X3862D01*
X3839Y2894D01*
X3804Y2917D01*
D02*
G37*
G36*
X4688Y2759D02*
X4629D01*
X4653Y2723D01*
X4688Y2700D01*
Y2759D01*
D02*
G37*
G36*
X4846D02*
X4788D01*
Y2700D01*
X4823Y2723D01*
X4846Y2759D01*
D02*
G37*
G36*
X5672D02*
X5613D01*
X5637Y2723D01*
X5672Y2700D01*
Y2759D01*
D02*
G37*
G36*
X3862D02*
X3804D01*
Y2700D01*
X3839Y2723D01*
X3862Y2759D01*
D02*
G37*
G36*
X2719D02*
X2661D01*
X2684Y2723D01*
X2719Y2700D01*
Y2759D01*
D02*
G37*
G36*
X2878D02*
X2819D01*
Y2700D01*
X2854Y2723D01*
X2878Y2759D01*
D02*
G37*
G36*
X3704D02*
X3645D01*
X3668Y2723D01*
X3704Y2700D01*
Y2759D01*
D02*
G37*
G36*
X7799D02*
X7741D01*
Y2700D01*
X7776Y2723D01*
X7799Y2759D01*
D02*
G37*
G36*
X8625D02*
X8566D01*
X8590Y2723D01*
X8625Y2700D01*
Y2759D01*
D02*
G37*
G36*
X8783D02*
X8725D01*
Y2700D01*
X8760Y2723D01*
X8783Y2759D01*
D02*
G37*
G36*
X7641D02*
X7582D01*
X7605Y2723D01*
X7641Y2700D01*
Y2759D01*
D02*
G37*
G36*
X5831D02*
X5772D01*
Y2700D01*
X5807Y2723D01*
X5831Y2759D01*
D02*
G37*
G36*
X6656D02*
X6598D01*
X6621Y2723D01*
X6656Y2700D01*
Y2759D01*
D02*
G37*
G36*
X6815D02*
X6756D01*
Y2700D01*
X6791Y2723D01*
X6815Y2759D01*
D02*
G37*
G36*
X7641Y2917D02*
X7605Y2894D01*
X7582Y2859D01*
X7641D01*
Y2917D01*
D02*
G37*
G36*
X3211Y3902D02*
X3176Y3878D01*
X3153Y3843D01*
X3211D01*
Y3902D01*
D02*
G37*
G36*
X3311D02*
Y3843D01*
X3370D01*
X3347Y3878D01*
X3311Y3902D01*
D02*
G37*
G36*
X4196D02*
X4161Y3878D01*
X4137Y3843D01*
X4196D01*
Y3902D01*
D02*
G37*
G36*
X2327D02*
Y3843D01*
X2386D01*
X2362Y3878D01*
X2327Y3902D01*
D02*
G37*
G36*
X9276Y3743D02*
X9217D01*
Y3684D01*
X9252Y3708D01*
X9276Y3743D01*
D02*
G37*
G36*
X1343Y3902D02*
Y3843D01*
X1402D01*
X1378Y3878D01*
X1343Y3902D01*
D02*
G37*
G36*
X2227D02*
X2192Y3878D01*
X2169Y3843D01*
X2227D01*
Y3902D01*
D02*
G37*
G36*
X4296D02*
Y3843D01*
X4354D01*
X4331Y3878D01*
X4296Y3902D01*
D02*
G37*
G36*
X6814Y4161D02*
X6564D01*
Y4083D01*
X6814D01*
Y4161D01*
D02*
G37*
G36*
X7164Y4339D02*
X6914D01*
Y4211D01*
Y4083D01*
X7164D01*
Y4119D01*
X7243Y4143D01*
X7254Y4125D01*
X7289Y4102D01*
Y4211D01*
Y4319D01*
X7254Y4296D01*
X7243Y4278D01*
X7164Y4302D01*
Y4339D01*
D02*
G37*
G36*
X7448Y4161D02*
X7389D01*
Y4102D01*
X7425Y4125D01*
X7448Y4161D01*
D02*
G37*
G36*
X7248Y3902D02*
Y3843D01*
X7307D01*
X7284Y3878D01*
X7248Y3902D01*
D02*
G37*
G36*
X5180D02*
X5145Y3878D01*
X5121Y3843D01*
X5180D01*
Y3902D01*
D02*
G37*
G36*
X5280D02*
Y3843D01*
X5339D01*
X5315Y3878D01*
X5280Y3902D01*
D02*
G37*
G36*
X7148D02*
X7113Y3878D01*
X7090Y3843D01*
X7148D01*
Y3902D01*
D02*
G37*
G36*
X9117Y3743D02*
X9058D01*
X9082Y3708D01*
X9117Y3684D01*
Y3743D01*
D02*
G37*
G36*
X9709Y2917D02*
Y2859D01*
X9768D01*
X9744Y2894D01*
X9709Y2917D01*
D02*
G37*
G36*
X3328Y6037D02*
X3170Y6022D01*
X3018Y5976D01*
X2877Y5901D01*
X2754Y5800D01*
X2654Y5677D01*
X2579Y5537D01*
X2533Y5385D01*
X2517Y5226D01*
X2533Y5068D01*
X2579Y4916D01*
X2654Y4776D01*
X2754Y4653D01*
X2877Y4552D01*
X3018Y4477D01*
X3170Y4431D01*
X3328Y4415D01*
X3486Y4431D01*
X3638Y4477D01*
X3779Y4552D01*
X3901Y4653D01*
X4002Y4776D01*
X4077Y4916D01*
X4110Y5026D01*
X4890D01*
X4920Y5003D01*
X4982Y4977D01*
X5020Y4972D01*
X5713Y4278D01*
Y3848D01*
X5629D01*
Y3081D01*
X6200D01*
Y3848D01*
X6115D01*
Y4361D01*
X6100Y4438D01*
X6056Y4503D01*
X5303Y5256D01*
X5298Y5293D01*
X5273Y5355D01*
X5232Y5409D01*
X5178Y5450D01*
X5116Y5476D01*
X5049Y5485D01*
X4982Y5476D01*
X4920Y5450D01*
X4890Y5427D01*
X4110D01*
X4077Y5537D01*
X4002Y5677D01*
X3901Y5800D01*
X3779Y5901D01*
X3638Y5976D01*
X3486Y6022D01*
X3328Y6037D01*
D02*
G37*
G36*
X1402Y3743D02*
X1343D01*
Y3684D01*
X1378Y3708D01*
X1402Y3743D01*
D02*
G37*
G36*
X9609Y2917D02*
X9574Y2894D01*
X9550Y2859D01*
X9609D01*
Y2917D01*
D02*
G37*
G36*
X7741D02*
Y2859D01*
X7799D01*
X7776Y2894D01*
X7741Y2917D01*
D02*
G37*
G36*
X8625D02*
X8590Y2894D01*
X8566Y2859D01*
X8625D01*
Y2917D01*
D02*
G37*
G36*
X8725D02*
Y2859D01*
X8783D01*
X8760Y2894D01*
X8725Y2917D01*
D02*
G37*
G36*
X2227Y3743D02*
X2169D01*
X2192Y3708D01*
X2227Y3684D01*
Y3743D01*
D02*
G37*
G36*
X4354D02*
X4296D01*
Y3684D01*
X4331Y3708D01*
X4354Y3743D01*
D02*
G37*
G36*
X5180D02*
X5121D01*
X5145Y3708D01*
X5180Y3684D01*
Y3743D01*
D02*
G37*
G36*
X5339D02*
X5280D01*
Y3684D01*
X5315Y3708D01*
X5339Y3743D01*
D02*
G37*
G36*
X4196D02*
X4137D01*
X4161Y3708D01*
X4196Y3684D01*
Y3743D01*
D02*
G37*
G36*
X2386D02*
X2327D01*
Y3684D01*
X2362Y3708D01*
X2386Y3743D01*
D02*
G37*
G36*
X3211D02*
X3153D01*
X3176Y3708D01*
X3211Y3684D01*
Y3743D01*
D02*
G37*
G36*
X3370D02*
X3311D01*
Y3684D01*
X3347Y3708D01*
X3370Y3743D01*
D02*
G37*
G36*
X1894Y2759D02*
X1835D01*
Y2700D01*
X1870Y2723D01*
X1894Y2759D01*
D02*
G37*
G36*
X4688Y949D02*
X4653Y925D01*
X4629Y890D01*
X4688D01*
Y949D01*
D02*
G37*
G36*
X4788D02*
Y890D01*
X4846D01*
X4823Y925D01*
X4788Y949D01*
D02*
G37*
G36*
X5672D02*
X5637Y925D01*
X5613Y890D01*
X5672D01*
Y949D01*
D02*
G37*
G36*
X3804D02*
Y890D01*
X3862D01*
X3839Y925D01*
X3804Y949D01*
D02*
G37*
G36*
X2719D02*
X2684Y925D01*
X2661Y890D01*
X2719D01*
Y949D01*
D02*
G37*
G36*
X2819D02*
Y890D01*
X2878D01*
X2854Y925D01*
X2819Y949D01*
D02*
G37*
G36*
X3704D02*
X3668Y925D01*
X3645Y890D01*
X3704D01*
Y949D01*
D02*
G37*
G36*
X5772D02*
Y890D01*
X5831D01*
X5807Y925D01*
X5772Y949D01*
D02*
G37*
G36*
X8625D02*
X8590Y925D01*
X8566Y890D01*
X8625D01*
Y949D01*
D02*
G37*
G36*
X8725D02*
Y890D01*
X8783D01*
X8760Y925D01*
X8725Y949D01*
D02*
G37*
G36*
X9609D02*
X9574Y925D01*
X9550Y890D01*
X9609D01*
Y949D01*
D02*
G37*
G36*
X7741D02*
Y890D01*
X7799D01*
X7776Y925D01*
X7741Y949D01*
D02*
G37*
G36*
X6656D02*
X6621Y925D01*
X6598Y890D01*
X6656D01*
Y949D01*
D02*
G37*
G36*
X6756D02*
Y890D01*
X6815D01*
X6791Y925D01*
X6756Y949D01*
D02*
G37*
G36*
X7641D02*
X7605Y925D01*
X7582Y890D01*
X7641D01*
Y949D01*
D02*
G37*
G36*
X9768Y790D02*
X9709D01*
Y731D01*
X9744Y755D01*
X9768Y790D01*
D02*
G37*
G36*
X4688D02*
X4629D01*
X4653Y755D01*
X4688Y731D01*
Y790D01*
D02*
G37*
G36*
X4846D02*
X4788D01*
Y731D01*
X4823Y755D01*
X4846Y790D01*
D02*
G37*
G36*
X5672D02*
X5613D01*
X5637Y755D01*
X5672Y731D01*
Y790D01*
D02*
G37*
G36*
X3862D02*
X3804D01*
Y731D01*
X3839Y755D01*
X3862Y790D01*
D02*
G37*
G36*
X2719D02*
X2661D01*
X2684Y755D01*
X2719Y731D01*
Y790D01*
D02*
G37*
G36*
X2878D02*
X2819D01*
Y731D01*
X2854Y755D01*
X2878Y790D01*
D02*
G37*
G36*
X3704D02*
X3645D01*
X3668Y755D01*
X3704Y731D01*
Y790D01*
D02*
G37*
G36*
X5831D02*
X5772D01*
Y731D01*
X5807Y755D01*
X5831Y790D01*
D02*
G37*
G36*
X8625D02*
X8566D01*
X8590Y755D01*
X8625Y731D01*
Y790D01*
D02*
G37*
G36*
X8783D02*
X8725D01*
Y731D01*
X8760Y755D01*
X8783Y790D01*
D02*
G37*
G36*
X9609D02*
X9550D01*
X9574Y755D01*
X9609Y731D01*
Y790D01*
D02*
G37*
G36*
X7799D02*
X7741D01*
Y731D01*
X7776Y755D01*
X7799Y790D01*
D02*
G37*
G36*
X6656D02*
X6598D01*
X6621Y755D01*
X6656Y731D01*
Y790D01*
D02*
G37*
G36*
X6815D02*
X6756D01*
Y731D01*
X6791Y755D01*
X6815Y790D01*
D02*
G37*
G36*
X7641D02*
X7582D01*
X7605Y755D01*
X7641Y731D01*
Y790D01*
D02*
G37*
G36*
X9709Y949D02*
Y890D01*
X9768D01*
X9744Y925D01*
X9709Y949D01*
D02*
G37*
G36*
X5180Y1933D02*
X5145Y1910D01*
X5121Y1874D01*
X5180D01*
Y1933D01*
D02*
G37*
G36*
X5280D02*
Y1874D01*
X5339D01*
X5315Y1910D01*
X5280Y1933D01*
D02*
G37*
G36*
X6164D02*
X6129Y1910D01*
X6106Y1874D01*
X6164D01*
Y1933D01*
D02*
G37*
G36*
X4296D02*
Y1874D01*
X4354D01*
X4331Y1910D01*
X4296Y1933D01*
D02*
G37*
G36*
X3211D02*
X3176Y1910D01*
X3153Y1874D01*
X3211D01*
Y1933D01*
D02*
G37*
G36*
X3311D02*
Y1874D01*
X3370D01*
X3347Y1910D01*
X3311Y1933D01*
D02*
G37*
G36*
X4196D02*
X4161Y1910D01*
X4137Y1874D01*
X4196D01*
Y1933D01*
D02*
G37*
G36*
X6264D02*
Y1874D01*
X6323D01*
X6299Y1910D01*
X6264Y1933D01*
D02*
G37*
G36*
X9117D02*
X9082Y1910D01*
X9058Y1874D01*
X9117D01*
Y1933D01*
D02*
G37*
G36*
X9217D02*
Y1874D01*
X9276D01*
X9252Y1910D01*
X9217Y1933D01*
D02*
G37*
G36*
X1735Y2759D02*
X1676D01*
X1700Y2723D01*
X1735Y2700D01*
Y2759D01*
D02*
G37*
G36*
X8233Y1933D02*
Y1874D01*
X8291D01*
X8268Y1910D01*
X8233Y1933D01*
D02*
G37*
G36*
X7148D02*
X7113Y1910D01*
X7090Y1874D01*
X7148D01*
Y1933D01*
D02*
G37*
G36*
X7248D02*
Y1874D01*
X7307D01*
X7284Y1910D01*
X7248Y1933D01*
D02*
G37*
G36*
X8133D02*
X8098Y1910D01*
X8074Y1874D01*
X8133D01*
Y1933D01*
D02*
G37*
G36*
X2327D02*
Y1874D01*
X2386D01*
X2362Y1910D01*
X2327Y1933D01*
D02*
G37*
G36*
X4354Y1774D02*
X4296D01*
Y1716D01*
X4331Y1739D01*
X4354Y1774D01*
D02*
G37*
G36*
X5180D02*
X5121D01*
X5145Y1739D01*
X5180Y1716D01*
Y1774D01*
D02*
G37*
G36*
X5339D02*
X5280D01*
Y1716D01*
X5315Y1739D01*
X5339Y1774D01*
D02*
G37*
G36*
X4196D02*
X4137D01*
X4161Y1739D01*
X4196Y1716D01*
Y1774D01*
D02*
G37*
G36*
X2386D02*
X2327D01*
Y1716D01*
X2362Y1739D01*
X2386Y1774D01*
D02*
G37*
G36*
X3211D02*
X3153D01*
X3176Y1739D01*
X3211Y1716D01*
Y1774D01*
D02*
G37*
G36*
X3370D02*
X3311D01*
Y1716D01*
X3347Y1739D01*
X3370Y1774D01*
D02*
G37*
G36*
X6164D02*
X6106D01*
X6129Y1739D01*
X6164Y1716D01*
Y1774D01*
D02*
G37*
G36*
X8291D02*
X8233D01*
Y1716D01*
X8268Y1739D01*
X8291Y1774D01*
D02*
G37*
G36*
X9117D02*
X9058D01*
X9082Y1739D01*
X9117Y1716D01*
Y1774D01*
D02*
G37*
G36*
X9276D02*
X9217D01*
Y1716D01*
X9252Y1739D01*
X9276Y1774D01*
D02*
G37*
G36*
X8133D02*
X8074D01*
X8098Y1739D01*
X8133Y1716D01*
Y1774D01*
D02*
G37*
G36*
X6323D02*
X6264D01*
Y1716D01*
X6299Y1739D01*
X6323Y1774D01*
D02*
G37*
G36*
X7148D02*
X7090D01*
X7113Y1739D01*
X7148Y1716D01*
Y1774D01*
D02*
G37*
G36*
X7307D02*
X7248D01*
Y1716D01*
X7284Y1739D01*
X7307Y1774D01*
D02*
G37*
G36*
X2386Y13585D02*
X2327D01*
Y13527D01*
X2362Y13550D01*
X2386Y13585D01*
D02*
G37*
G36*
X4196D02*
X4137D01*
X4161Y13550D01*
X4196Y13527D01*
Y13585D01*
D02*
G37*
G36*
X4354D02*
X4296D01*
Y13527D01*
X4331Y13550D01*
X4354Y13585D01*
D02*
G37*
G36*
X2227D02*
X2169D01*
X2192Y13550D01*
X2227Y13527D01*
Y13585D01*
D02*
G37*
G36*
X5180D02*
X5121D01*
X5145Y13550D01*
X5180Y13527D01*
Y13585D01*
D02*
G37*
G36*
X4296Y13744D02*
Y13685D01*
X4354D01*
X4331Y13721D01*
X4296Y13744D01*
D02*
G37*
G36*
X5180D02*
X5145Y13721D01*
X5121Y13685D01*
X5180D01*
Y13744D01*
D02*
G37*
G36*
X5280D02*
Y13685D01*
X5339D01*
X5315Y13721D01*
X5280Y13744D01*
D02*
G37*
G36*
X4196D02*
X4161Y13721D01*
X4137Y13685D01*
X4196D01*
Y13744D01*
D02*
G37*
G36*
X5339Y13585D02*
X5280D01*
Y13527D01*
X5315Y13550D01*
X5339Y13585D01*
D02*
G37*
G36*
X2227Y13744D02*
X2192Y13721D01*
X2169Y13685D01*
X2227D01*
Y13744D01*
D02*
G37*
G36*
X2327D02*
Y13685D01*
X2386D01*
X2362Y13721D01*
X2327Y13744D01*
D02*
G37*
G36*
Y11776D02*
Y11717D01*
X2386D01*
X2362Y11752D01*
X2327Y11776D01*
D02*
G37*
G36*
X4950Y12104D02*
X4783D01*
Y11869D01*
X4950D01*
Y12104D01*
D02*
G37*
G36*
X5217D02*
X5050D01*
Y11869D01*
X5217D01*
Y12104D01*
D02*
G37*
G36*
X2227Y11776D02*
X2192Y11752D01*
X2169Y11717D01*
X2227D01*
Y11776D01*
D02*
G37*
G36*
X2386Y11617D02*
X2327D01*
Y11558D01*
X2362Y11582D01*
X2386Y11617D01*
D02*
G37*
G36*
X4513Y11769D02*
X4454D01*
X4478Y11734D01*
X4513Y11710D01*
Y11769D01*
D02*
G37*
G36*
X4672D02*
X4613D01*
Y11710D01*
X4648Y11734D01*
X4672Y11769D01*
D02*
G37*
G36*
X4513Y11927D02*
X4478Y11904D01*
X4454Y11869D01*
X4513D01*
Y11927D01*
D02*
G37*
G36*
X4871Y12884D02*
X4734D01*
Y12660D01*
X4656Y12636D01*
X4652Y12641D01*
X4617Y12665D01*
Y12556D01*
Y12448D01*
X4652Y12471D01*
X4656Y12476D01*
X4734Y12452D01*
Y12313D01*
X4871D01*
Y12598D01*
Y12884D01*
D02*
G37*
G36*
X5108D02*
X4971D01*
Y12648D01*
X5108D01*
Y12884D01*
D02*
G37*
G36*
X4517Y12665D02*
X4482Y12641D01*
X4458Y12606D01*
X4517D01*
Y12665D01*
D02*
G37*
G36*
X4613Y11927D02*
Y11869D01*
X4672D01*
X4648Y11904D01*
X4613Y11927D01*
D02*
G37*
G36*
X5108Y12548D02*
X4971D01*
Y12313D01*
X5108D01*
Y12548D01*
D02*
G37*
G36*
X4517Y12506D02*
X4458D01*
X4482Y12471D01*
X4517Y12448D01*
Y12506D01*
D02*
G37*
G36*
X3328Y15517D02*
X3170Y15502D01*
X3018Y15456D01*
X2877Y15381D01*
X2754Y15280D01*
X2654Y15157D01*
X2579Y15017D01*
X2533Y14865D01*
X2517Y14706D01*
X2533Y14548D01*
X2579Y14396D01*
X2654Y14256D01*
X2754Y14133D01*
X2877Y14032D01*
X3018Y13957D01*
X3170Y13911D01*
X3328Y13895D01*
X3486Y13911D01*
X3638Y13957D01*
X3779Y14032D01*
X3901Y14133D01*
X4002Y14256D01*
X4077Y14396D01*
X4123Y14548D01*
X4139Y14706D01*
X4123Y14865D01*
X4077Y15017D01*
X4002Y15157D01*
X3901Y15280D01*
X3779Y15381D01*
X3638Y15456D01*
X3486Y15502D01*
X3328Y15517D01*
D02*
G37*
G36*
X4788Y14728D02*
Y14670D01*
X4846D01*
X4823Y14705D01*
X4788Y14728D01*
D02*
G37*
G36*
X4688D02*
X4653Y14705D01*
X4629Y14670D01*
X4688D01*
Y14728D01*
D02*
G37*
G36*
Y14570D02*
X4629D01*
X4653Y14534D01*
X4688Y14511D01*
Y14570D01*
D02*
G37*
G36*
X4846D02*
X4788D01*
Y14511D01*
X4823Y14534D01*
X4846Y14570D01*
D02*
G37*
G36*
X6367Y6525D02*
X6230D01*
Y6289D01*
X6367D01*
Y6525D01*
D02*
G37*
G36*
X6604D02*
X6467D01*
Y6289D01*
X6604D01*
Y6525D01*
D02*
G37*
G36*
X4296Y5870D02*
Y5811D01*
X4354D01*
X4331Y5847D01*
X4296Y5870D01*
D02*
G37*
G36*
X4196Y5711D02*
X4137D01*
X4161Y5676D01*
X4196Y5653D01*
Y5711D01*
D02*
G37*
G36*
X4354D02*
X4296D01*
Y5653D01*
X4331Y5676D01*
X4354Y5711D01*
D02*
G37*
G36*
X4196Y5870D02*
X4161Y5847D01*
X4137Y5811D01*
X4196D01*
Y5870D01*
D02*
G37*
G36*
X5934Y6643D02*
X5876D01*
X5899Y6608D01*
X5934Y6584D01*
Y6643D01*
D02*
G37*
G36*
X1894Y6696D02*
X1835D01*
Y6637D01*
X1870Y6660D01*
X1894Y6696D01*
D02*
G37*
G36*
X2719D02*
X2661D01*
X2684Y6660D01*
X2719Y6637D01*
Y6696D01*
D02*
G37*
G36*
X2878D02*
X2819D01*
Y6637D01*
X2854Y6660D01*
X2878Y6696D01*
D02*
G37*
G36*
X1735D02*
X1676D01*
X1700Y6660D01*
X1735Y6637D01*
Y6696D01*
D02*
G37*
G36*
X6093Y6643D02*
X6034D01*
Y6584D01*
X6069Y6608D01*
X6093Y6643D01*
D02*
G37*
G36*
X6367Y6860D02*
X6230D01*
Y6625D01*
X6367D01*
Y6860D01*
D02*
G37*
G36*
X6604D02*
X6467D01*
Y6625D01*
X6604D01*
Y6860D01*
D02*
G37*
G36*
X4688Y4727D02*
X4629D01*
X4653Y4692D01*
X4688Y4668D01*
Y4727D01*
D02*
G37*
G36*
X4846D02*
X4788D01*
Y4668D01*
X4823Y4692D01*
X4846Y4727D01*
D02*
G37*
G36*
X4688Y4886D02*
X4653Y4862D01*
X4629Y4827D01*
X4688D01*
Y4886D01*
D02*
G37*
G36*
X2297Y5176D02*
X1606D01*
Y4485D01*
X2297D01*
Y5176D01*
D02*
G37*
G36*
X6814Y4339D02*
X6564D01*
Y4261D01*
X6814D01*
Y4339D01*
D02*
G37*
G36*
X7389Y4319D02*
Y4261D01*
X7448D01*
X7425Y4296D01*
X7389Y4319D01*
D02*
G37*
G36*
X1506Y5176D02*
X815D01*
Y4485D01*
X1506D01*
Y5176D01*
D02*
G37*
G36*
X4788Y4886D02*
Y4827D01*
X4846D01*
X4823Y4862D01*
X4788Y4886D01*
D02*
G37*
G36*
X2297Y5968D02*
X1606D01*
Y5276D01*
X2297D01*
Y5968D01*
D02*
G37*
G36*
X1506D02*
X815D01*
Y5276D01*
X1506D01*
Y5968D01*
D02*
G37*
G36*
X7491Y9046D02*
Y8987D01*
X7550D01*
X7526Y9022D01*
X7491Y9046D01*
D02*
G37*
G36*
X3328Y10752D02*
X3170Y10737D01*
X3018Y10691D01*
X2877Y10616D01*
X2754Y10515D01*
X2654Y10392D01*
X2579Y10252D01*
X2533Y10100D01*
X2517Y9941D01*
X2533Y9783D01*
X2579Y9631D01*
X2654Y9491D01*
X2754Y9368D01*
X2877Y9267D01*
X3018Y9192D01*
X3170Y9146D01*
X3328Y9130D01*
X3486Y9146D01*
X3638Y9192D01*
X3779Y9267D01*
X3901Y9368D01*
X4002Y9491D01*
X4077Y9631D01*
X4123Y9783D01*
X4139Y9941D01*
X4123Y10100D01*
X4077Y10252D01*
X4002Y10392D01*
X3901Y10515D01*
X3779Y10616D01*
X3638Y10691D01*
X3486Y10737D01*
X3328Y10752D01*
D02*
G37*
G36*
X5226Y10501D02*
X5167D01*
X5190Y10466D01*
X5226Y10443D01*
Y10501D01*
D02*
G37*
G36*
X7550Y8887D02*
X7491D01*
Y8828D01*
X7526Y8852D01*
X7550Y8887D01*
D02*
G37*
G36*
X5226Y10660D02*
X5190Y10636D01*
X5167Y10601D01*
X5226D01*
Y10660D01*
D02*
G37*
G36*
X4950Y11769D02*
X4783D01*
Y11533D01*
X4950D01*
Y11769D01*
D02*
G37*
G36*
X5217D02*
X5050D01*
Y11533D01*
X5217D01*
Y11769D01*
D02*
G37*
G36*
X2227Y11617D02*
X2169D01*
X2192Y11582D01*
X2227Y11558D01*
Y11617D01*
D02*
G37*
G36*
X5108Y11302D02*
X4971D01*
Y11067D01*
X5108D01*
Y11302D01*
D02*
G37*
G36*
X4871Y10967D02*
X4734D01*
Y10731D01*
X4871D01*
Y10967D01*
D02*
G37*
G36*
X5108D02*
X4971D01*
Y10731D01*
X5108D01*
Y10967D01*
D02*
G37*
G36*
X4871Y11302D02*
X4734D01*
Y11067D01*
X4871D01*
Y11302D01*
D02*
G37*
G36*
X2327Y7839D02*
Y7780D01*
X2386D01*
X2362Y7815D01*
X2327Y7839D01*
D02*
G37*
G36*
X2719Y6854D02*
X2684Y6831D01*
X2661Y6796D01*
X2719D01*
Y6854D01*
D02*
G37*
G36*
X2819D02*
Y6796D01*
X2878D01*
X2854Y6831D01*
X2819Y6854D01*
D02*
G37*
G36*
X1835D02*
Y6796D01*
X1894D01*
X1870Y6831D01*
X1835Y6854D01*
D02*
G37*
G36*
X5934Y6802D02*
X5899Y6778D01*
X5876Y6743D01*
X5934D01*
Y6802D01*
D02*
G37*
G36*
X6034D02*
Y6743D01*
X6093D01*
X6069Y6778D01*
X6034Y6802D01*
D02*
G37*
G36*
X1735Y6854D02*
X1700Y6831D01*
X1676Y6796D01*
X1735D01*
Y6854D01*
D02*
G37*
G36*
X2386Y7680D02*
X2327D01*
Y7621D01*
X2362Y7645D01*
X2386Y7680D01*
D02*
G37*
G36*
X1343Y7839D02*
Y7780D01*
X1402D01*
X1378Y7815D01*
X1343Y7839D01*
D02*
G37*
G36*
X2227D02*
X2192Y7815D01*
X2169Y7780D01*
X2227D01*
Y7839D01*
D02*
G37*
G36*
Y7680D02*
X2169D01*
X2192Y7645D01*
X2227Y7621D01*
Y7680D01*
D02*
G37*
G36*
X1402D02*
X1343D01*
Y7621D01*
X1378Y7645D01*
X1402Y7680D01*
D02*
G37*
G36*
X8925Y13692D02*
X8600D01*
Y13436D01*
X8925D01*
Y13692D01*
D02*
G37*
G36*
X7519Y13697D02*
X7195D01*
Y13441D01*
X7519D01*
Y13697D01*
D02*
G37*
G36*
X7962D02*
X7638D01*
Y13441D01*
X7962D01*
Y13697D01*
D02*
G37*
G36*
X8482Y13692D02*
X8157D01*
Y13436D01*
X8482D01*
Y13692D01*
D02*
G37*
G36*
X14296Y13035D02*
Y12917D01*
X14523D01*
Y13035D01*
X14296D01*
D02*
G37*
G36*
X11171Y16579D02*
X10974D01*
Y16205D01*
X11171D01*
Y16579D01*
D02*
G37*
G36*
X11486D02*
X11289D01*
Y16205D01*
X11486D01*
Y16579D01*
D02*
G37*
G36*
X5076Y17264D02*
X4800D01*
Y16732D01*
X5076D01*
Y17264D01*
D02*
G37*
G36*
X7617Y16240D02*
X7066D01*
Y16037D01*
X6952D01*
Y16240D01*
X6381D01*
Y15472D01*
X6952D01*
Y15676D01*
X7066D01*
Y15492D01*
X7617D01*
Y16240D01*
D02*
G37*
G36*
X11486Y16087D02*
X11289D01*
Y15713D01*
X11486D01*
Y16087D01*
D02*
G37*
G36*
X8030Y16240D02*
X7814D01*
Y15925D01*
X8030D01*
Y16240D01*
D02*
G37*
G36*
X8365D02*
X8148D01*
Y15925D01*
X8365D01*
Y16240D01*
D02*
G37*
G36*
X5469Y17264D02*
X5194D01*
Y16732D01*
X5469D01*
Y17264D01*
D02*
G37*
G36*
X11500Y17933D02*
X11303D01*
Y17559D01*
X11500D01*
Y17933D01*
D02*
G37*
G36*
X11185Y18425D02*
X10988D01*
Y18051D01*
X11185D01*
Y18425D01*
D02*
G37*
G36*
X11500D02*
X11303D01*
Y18051D01*
X11500D01*
Y18425D01*
D02*
G37*
G36*
X11185Y17933D02*
X10988D01*
Y17559D01*
X11185D01*
Y17933D01*
D02*
G37*
G36*
X7438Y17913D02*
X6769D01*
Y16732D01*
X7438D01*
Y17080D01*
X7517Y17120D01*
X7519Y17119D01*
X7603Y17102D01*
X7688Y17119D01*
X7759Y17167D01*
X7807Y17238D01*
X7824Y17323D01*
X7807Y17407D01*
X7759Y17479D01*
X7688Y17527D01*
X7603Y17544D01*
X7519Y17527D01*
X7517Y17525D01*
X7438Y17565D01*
Y17913D01*
D02*
G37*
G36*
X5076D02*
X4800D01*
Y17382D01*
X5076D01*
Y17913D01*
D02*
G37*
G36*
X5469D02*
X5194D01*
Y17382D01*
X5469D01*
Y17913D01*
D02*
G37*
G36*
X11171Y16087D02*
X10974D01*
Y15713D01*
X11171D01*
Y16087D01*
D02*
G37*
G36*
X11168Y14232D02*
X10971D01*
Y13858D01*
X11168D01*
Y14232D01*
D02*
G37*
G36*
X11483D02*
X11286D01*
Y13858D01*
X11483D01*
Y14232D01*
D02*
G37*
G36*
X7962Y14071D02*
X7638D01*
Y13815D01*
X7962D01*
Y14071D01*
D02*
G37*
G36*
X8482Y14066D02*
X8157D01*
Y13810D01*
X8482D01*
Y14066D01*
D02*
G37*
G36*
X8925D02*
X8600D01*
Y13810D01*
X8925D01*
Y14066D01*
D02*
G37*
G36*
X7519Y14071D02*
X7195D01*
Y13815D01*
X7519D01*
Y14071D01*
D02*
G37*
G36*
X11168Y14724D02*
X10971D01*
Y14350D01*
X11168D01*
Y14724D01*
D02*
G37*
G36*
X8030Y15807D02*
X7814D01*
Y15492D01*
X8030D01*
Y15807D01*
D02*
G37*
G36*
X8365D02*
X8148D01*
Y15492D01*
X8365D01*
Y15807D01*
D02*
G37*
G36*
X11483Y14724D02*
X11286D01*
Y14350D01*
X11483D01*
Y14724D01*
D02*
G37*
%LPD*%
D10*
X14237Y12858D02*
D03*
X14237Y7110D02*
D03*
D11*
X14346Y12582D02*
D03*
Y12346D02*
D03*
Y12110D02*
D03*
Y11874D02*
D03*
X14346Y11637D02*
D03*
X14346Y11401D02*
D03*
Y11165D02*
D03*
X14346Y10929D02*
D03*
X14346Y10693D02*
D03*
Y10456D02*
D03*
X14346Y10220D02*
D03*
X14346Y9984D02*
D03*
Y9748D02*
D03*
X14346Y9511D02*
D03*
X14346Y9275D02*
D03*
X14346Y9039D02*
D03*
Y8803D02*
D03*
X14346Y8567D02*
D03*
X14346Y8330D02*
D03*
X14346Y8094D02*
D03*
Y7858D02*
D03*
X14346Y7622D02*
D03*
X14346Y7385D02*
D03*
D12*
X13213Y12464D02*
D03*
Y12228D02*
D03*
Y11992D02*
D03*
Y11756D02*
D03*
Y11519D02*
D03*
Y11283D02*
D03*
Y11047D02*
D03*
Y10811D02*
D03*
Y10574D02*
D03*
Y10338D02*
D03*
Y10102D02*
D03*
Y9866D02*
D03*
Y9630D02*
D03*
Y9393D02*
D03*
Y9157D02*
D03*
Y8921D02*
D03*
Y8685D02*
D03*
Y8448D02*
D03*
Y8212D02*
D03*
Y7976D02*
D03*
Y7740D02*
D03*
Y7504D02*
D03*
D13*
X7103Y17323D02*
D03*
X6119D02*
D03*
X5135D02*
D03*
D14*
X5879Y15856D02*
D03*
X6667D02*
D03*
X5709Y12598D02*
D03*
X4921D02*
D03*
X5709Y11017D02*
D03*
X4921D02*
D03*
X7205Y6575D02*
D03*
X6417D02*
D03*
X7755Y6556D02*
D03*
X8542D02*
D03*
X6702Y3465D02*
D03*
X5914D02*
D03*
X13386Y6299D02*
D03*
X14173D02*
D03*
D15*
X5000Y11819D02*
D03*
X5709D02*
D03*
X10986Y5306D02*
D03*
X10277D02*
D03*
D16*
X5809Y9803D02*
D03*
Y9094D02*
D03*
X7579Y13756D02*
D03*
Y13047D02*
D03*
X9275Y7835D02*
D03*
Y8543D02*
D03*
X8541Y13751D02*
D03*
Y13042D02*
D03*
X8346Y7835D02*
D03*
Y8543D02*
D03*
D17*
X6853Y9635D02*
D03*
X7103D02*
D03*
X7353D02*
D03*
X7603D02*
D03*
X7853D02*
D03*
X8103D02*
D03*
X8353D02*
D03*
X8603D02*
D03*
X8853D02*
D03*
X9103D02*
D03*
X9353D02*
D03*
X9603D02*
D03*
Y11710D02*
D03*
X9353D02*
D03*
X9103D02*
D03*
X8853D02*
D03*
X8603D02*
D03*
X8353D02*
D03*
X8103D02*
D03*
X7853D02*
D03*
X7603D02*
D03*
X7353D02*
D03*
X7103D02*
D03*
X6853D02*
D03*
D18*
X6864Y5711D02*
D03*
Y5211D02*
D03*
Y4711D02*
D03*
Y4211D02*
D03*
X8999D02*
D03*
Y4711D02*
D03*
Y5211D02*
D03*
Y5711D02*
D03*
D19*
X11244Y17992D02*
D03*
X9906D02*
D03*
X11230Y16146D02*
D03*
X9891D02*
D03*
X11227Y14291D02*
D03*
X9889D02*
D03*
D20*
X7813Y10197D02*
D03*
X8031D02*
D03*
X2271Y18110D02*
D03*
X2489D02*
D03*
D21*
X7341Y15866D02*
D03*
X8089D02*
D03*
D22*
X10011Y4506D02*
D03*
X9921Y8543D02*
D03*
X12008Y10555D02*
D03*
X11857Y10973D02*
D03*
X12205Y11283D02*
D03*
X11828Y11637D02*
D03*
X12559Y10000D02*
D03*
X12520Y7976D02*
D03*
Y7504D02*
D03*
X5049Y5226D02*
D03*
X12559Y6102D02*
D03*
D23*
X13857Y7622D02*
X14346D01*
X13739Y7740D02*
X13857Y7622D01*
X13213Y7740D02*
X13739D01*
X13796Y7976D02*
X13914Y7858D01*
X14346D01*
X13843Y7385D02*
X14346D01*
X13724Y7504D02*
X13843Y7385D01*
X14346Y7622D02*
X14685D01*
X13213Y7976D02*
X13796D01*
X13213Y7504D02*
X13724D01*
X6164Y11710D02*
X6853D01*
X6055Y11819D02*
X6164Y11710D01*
X5709Y11819D02*
X6055D01*
X7103Y11710D02*
Y12188D01*
X6693Y12598D02*
X7103Y12188D01*
X5709Y12598D02*
X6693D01*
X7103Y9635D02*
Y10416D01*
X6503Y11017D02*
X7103Y10416D01*
X5709Y11017D02*
X6503D01*
X7103Y9055D02*
Y9635D01*
X6864Y4711D02*
X7388D01*
X7402Y4724D01*
X6864Y5211D02*
X7460D01*
X7755Y5506D01*
Y6556D01*
X7143Y6457D02*
X7655D01*
X7755Y6556D01*
X6702Y3465D02*
X7893D01*
X8110Y3682D01*
Y6024D02*
X8542Y6456D01*
Y6556D01*
X8124Y4711D02*
X8999D01*
X8110Y4724D02*
X8124Y4711D01*
X8110Y3682D02*
Y4724D01*
Y6024D01*
X14346Y12110D02*
X14701D01*
X14039Y12346D02*
X14346D01*
X12897Y12228D02*
X13213D01*
X14091Y8094D02*
X14346D01*
X13937Y8249D02*
X14091Y8094D01*
X13213Y8212D02*
X13409D01*
X13583Y8386D01*
X14346Y8803D02*
X14708D01*
X12559Y8661D02*
X12772Y8448D01*
X13213D01*
X14173Y5827D02*
Y6299D01*
X12520Y7976D02*
X12913D01*
X13213D01*
X12520Y7504D02*
X12930D01*
X13213D01*
X12402Y10338D02*
X12421D01*
X12657Y10574D02*
X13213D01*
X12421Y10338D02*
X12657Y10574D01*
X13213Y9393D02*
X13527D01*
X14237Y12858D02*
Y13504D01*
X13386Y5551D02*
Y6299D01*
D24*
X14346Y10456D02*
X14701D01*
X14032Y10693D02*
X14346D01*
X14032Y11165D02*
X14346D01*
Y10929D02*
X14701D01*
X14032Y11637D02*
X14346D01*
Y11401D02*
X14701D01*
X9603Y11710D02*
Y12205D01*
X9353Y11355D02*
Y11710D01*
Y11355D02*
X9528Y11181D01*
X11302D01*
X11404Y11283D01*
X13213D01*
X9103Y11190D02*
Y11710D01*
X8853Y11068D02*
Y11710D01*
X8603Y11186D02*
Y11710D01*
X8353Y11017D02*
Y11710D01*
Y11017D02*
X8559Y10811D01*
X8853Y11068D02*
X8948Y10973D01*
X8103Y11197D02*
Y11710D01*
X7853Y10973D02*
Y11710D01*
X9353Y10338D02*
X9606Y10591D01*
X9353Y9635D02*
Y10338D01*
X9603Y9635D02*
Y10115D01*
X10079Y10591D01*
X13213Y10102D02*
X13370D01*
X13504Y10236D01*
Y14213D01*
X12677Y15039D02*
X13504Y14213D01*
X10118Y15039D02*
X12677D01*
X9889Y14810D02*
X10118Y15039D01*
X9889Y14291D02*
Y14810D01*
X13812Y9984D02*
X14346D01*
X13642Y10154D02*
X13812Y9984D01*
X13642Y10154D02*
Y14270D01*
X12734Y15177D02*
X13642Y14270D01*
X10374Y15177D02*
X12734D01*
X9891Y15660D02*
X10374Y15177D01*
X9891Y15660D02*
Y16146D01*
X13937Y10220D02*
X14346D01*
X13780Y10378D02*
X13937Y10220D01*
X13780Y10378D02*
Y14327D01*
X12791Y15315D02*
X13780Y14327D01*
X10709Y15315D02*
X12791D01*
X10453Y15571D02*
X10709Y15315D01*
X10453Y15571D02*
Y16791D01*
X9906Y17338D02*
X10453Y16791D01*
X9906Y17338D02*
Y17992D01*
X8976Y9055D02*
X10472D01*
X8853Y9178D02*
X8976Y9055D01*
X8853Y9178D02*
Y9635D01*
X8103Y9226D02*
Y9635D01*
Y9226D02*
X8353Y8976D01*
X5879Y13727D02*
X6503Y13103D01*
X5879Y13727D02*
Y15856D01*
X11158Y11637D02*
X11181D01*
X12897Y10338D02*
X13213D01*
X12559Y10000D02*
X12897Y10338D01*
X11417Y10000D02*
X12559D01*
X10472Y9055D02*
X11417Y10000D01*
X12248Y10555D02*
X12504Y10811D01*
X11555Y10555D02*
X12248D01*
X11299Y10811D02*
X11555Y10555D01*
X8559Y10811D02*
X11299D01*
X12504D02*
X13213D01*
X8948Y10973D02*
X11857D01*
X11181Y11637D02*
X12474D01*
X12592Y11519D01*
X13213D01*
X11857Y10973D02*
X12319D01*
X12392Y11047D01*
X13213D01*
D25*
X7579Y13047D02*
X8536D01*
X8541Y13042D01*
X7579Y13756D02*
Y14193D01*
X8541Y13751D02*
Y14188D01*
X4563Y11819D02*
X5000D01*
X5039Y10929D02*
X5276Y10693D01*
Y10551D02*
Y10693D01*
X4731Y12556D02*
X4764Y12524D01*
X4567Y12556D02*
X4731D01*
X10182Y5211D02*
X10277Y5306D01*
X9764Y4753D02*
X10011Y4506D01*
X9764Y4753D02*
Y5211D01*
X8999D02*
X9764D01*
X10182D01*
X6864Y4211D02*
X7339D01*
X6417Y6575D02*
Y6675D01*
X6400Y6693D02*
X6417Y6675D01*
X5984Y6693D02*
X6400D01*
X5049Y5226D02*
X5914Y4361D01*
Y3465D02*
Y4361D01*
X4240Y5226D02*
X5049D01*
X3328D02*
X4240D01*
X8346Y7835D02*
X9275D01*
Y6732D02*
Y7835D01*
X8541Y13042D02*
X9483D01*
X12205Y6102D02*
X12559D01*
D26*
X7603Y11710D02*
Y13022D01*
X7579Y13047D02*
X7603Y13022D01*
X8346Y8543D02*
X9275D01*
X7353Y11710D02*
Y12428D01*
X7143Y12638D02*
X7353Y12428D01*
X6119Y16552D02*
Y17323D01*
X5879Y16312D02*
X6119Y16552D01*
X5879Y15856D02*
Y16312D01*
X6667Y15856D02*
X7332D01*
X7341Y15866D01*
X8089D02*
X8581D01*
X11244Y17992D02*
X11736D01*
X11230Y16146D02*
X11721D01*
X11227Y14291D02*
X11719D01*
X6405Y9635D02*
X6853D01*
X6237Y9803D02*
X6405Y9635D01*
X5809Y9803D02*
X6237D01*
X5809Y9094D02*
X6360Y8543D01*
X8346D01*
X10986Y5306D02*
X11420D01*
X9103Y9635D02*
Y10109D01*
X9016Y10197D02*
X9103Y10109D01*
X8353Y9635D02*
Y10190D01*
X8346Y10197D02*
X8353Y10190D01*
X7603Y9635D02*
Y10116D01*
X9275Y8543D02*
X9921D01*
X8740Y10197D02*
X9016D01*
X7441Y8937D02*
X7603Y9099D01*
Y9449D01*
X7853Y8543D02*
Y9635D01*
Y8543D02*
X8346D01*
X9921D02*
X10472D01*
X10827Y8898D01*
X7103Y17323D02*
Y17661D01*
X4643Y17323D02*
X5135D01*
X7603Y10116D02*
X7677Y10190D01*
X8155D02*
X8353D01*
X8148Y10197D02*
X8155Y10190D01*
X8346Y10197D02*
X8740D01*
X7103Y17323D02*
X7603D01*
X7603Y17323D01*
X14237Y7110D02*
X14544D01*
X14606Y7047D01*
Y6654D02*
Y7047D01*
D27*
X10277Y5306D02*
Y6576D01*
X12047Y8346D02*
Y9055D01*
X10277Y6576D02*
X12047Y8346D01*
D28*
X12890Y18999D02*
X13780Y18110D01*
X2070Y18999D02*
X12890D01*
X1181Y18110D02*
X2070Y18999D01*
X1181Y16260D02*
Y18110D01*
X236Y15315D02*
X1181Y16260D01*
X236Y14006D02*
Y15315D01*
Y14006D02*
X1063Y13179D01*
Y11457D02*
Y13179D01*
X354Y10748D02*
X1063Y11457D01*
X354Y9206D02*
Y10748D01*
Y9206D02*
X906Y8654D01*
Y6535D02*
Y8654D01*
X377Y6007D02*
X906Y6535D01*
X377Y4444D02*
Y6007D01*
Y4444D02*
X906Y3916D01*
Y1457D02*
Y3916D01*
Y1457D02*
X1181Y1181D01*
Y866D02*
Y1181D01*
Y866D02*
X1850Y197D01*
X12795D01*
X13780Y1181D01*
X2769Y18209D02*
Y18557D01*
X2671Y18110D02*
X2769Y18209D01*
X2489Y18110D02*
X2671D01*
D29*
X3328Y5226D02*
D03*
Y9941D02*
D03*
Y14706D02*
D03*
D30*
X1556Y5226D02*
D03*
Y9941D02*
D03*
Y14706D02*
D03*
D31*
X7457Y18406D02*
D03*
X4780D02*
D03*
D32*
X1181Y18110D02*
D03*
X13780D02*
D03*
Y1181D02*
D03*
X1181D02*
D03*
D33*
X14685Y7622D02*
D03*
X12913Y7976D02*
D03*
X12930Y7504D02*
D03*
X14701Y10456D02*
D03*
X14032Y10693D02*
D03*
X14032Y11165D02*
D03*
X14701Y10929D02*
D03*
X14032Y11637D02*
D03*
X14701Y11401D02*
D03*
X9603Y12205D02*
D03*
X9103Y11190D02*
D03*
X8603Y11186D02*
D03*
X8103Y11197D02*
D03*
X7853Y10973D02*
D03*
X9606Y10591D02*
D03*
X10079Y10591D02*
D03*
X7579Y14193D02*
D03*
X8541Y14188D02*
D03*
X4563Y11819D02*
D03*
X5276Y10551D02*
D03*
X4567Y12556D02*
D03*
X7143Y12638D02*
D03*
X8581Y15866D02*
D03*
X11736Y17992D02*
D03*
X11721Y16146D02*
D03*
X11719Y14291D02*
D03*
X7103Y9055D02*
D03*
X7402Y4724D02*
D03*
X11420Y5306D02*
D03*
X7339Y4211D02*
D03*
X5984Y6693D02*
D03*
X9275Y6732D02*
D03*
X14701Y12110D02*
D03*
X14039Y12346D02*
D03*
X12897Y12228D02*
D03*
X13937Y8249D02*
D03*
X13583Y8386D02*
D03*
X12559Y8661D02*
D03*
X14708Y8803D02*
D03*
X14173Y5827D02*
D03*
X8740Y10197D02*
D03*
X8353Y8976D02*
D03*
X7441Y8937D02*
D03*
X6503Y13103D02*
D03*
X9483Y13042D02*
D03*
X10827Y8898D02*
D03*
X11181Y11637D02*
D03*
X10630Y11614D02*
D03*
X12421Y10338D02*
D03*
X13527Y9393D02*
D03*
X12205Y6102D02*
D03*
X4643Y17323D02*
D03*
X7520Y10197D02*
D03*
X14237Y13504D02*
D03*
X7603Y17323D02*
D03*
X12047Y9055D02*
D03*
X14606Y6654D02*
D03*
X13386Y5551D02*
D03*
X1293Y3793D02*
D03*
Y7730D02*
D03*
X2277Y1824D02*
D03*
X1785Y2809D02*
D03*
X2277Y3793D02*
D03*
X1785Y6746D02*
D03*
X2277Y7730D02*
D03*
Y11667D02*
D03*
Y13635D02*
D03*
X2769Y840D02*
D03*
X3261Y1824D02*
D03*
X2769Y2809D02*
D03*
X3261Y3793D02*
D03*
X2769Y6746D02*
D03*
X3754Y840D02*
D03*
X4246Y1824D02*
D03*
X3754Y2809D02*
D03*
X4246Y3793D02*
D03*
Y5761D02*
D03*
Y13635D02*
D03*
X4738Y840D02*
D03*
X5230Y1824D02*
D03*
X4738Y2809D02*
D03*
X5230Y3793D02*
D03*
X4738Y4777D02*
D03*
X5230Y13635D02*
D03*
X4738Y14620D02*
D03*
X5722Y840D02*
D03*
X6214Y1824D02*
D03*
X5722Y2809D02*
D03*
X6706Y840D02*
D03*
X7198Y1824D02*
D03*
X6706Y2809D02*
D03*
X7198Y3793D02*
D03*
X7691Y840D02*
D03*
X8183Y1824D02*
D03*
X7691Y2809D02*
D03*
X8675Y840D02*
D03*
X9167Y1824D02*
D03*
X8675Y2809D02*
D03*
X9167Y3793D02*
D03*
X9659Y840D02*
D03*
Y2809D02*
D03*
X2277Y17572D02*
D03*
X3261D02*
D03*
X2769Y18557D02*
D03*
X3754Y16588D02*
D03*
X4246Y17572D02*
D03*
X3754Y18557D02*
D03*
X5230Y15604D02*
D03*
X4738Y16588D02*
D03*
X5722D02*
D03*
Y18557D02*
D03*
X6706Y14620D02*
D03*
Y16588D02*
D03*
Y18557D02*
D03*
X7691Y14620D02*
D03*
Y16588D02*
D03*
X9167Y13635D02*
D03*
X8675Y14620D02*
D03*
X9167Y15604D02*
D03*
Y17572D02*
D03*
X8675Y18557D02*
D03*
X10151Y9698D02*
D03*
Y11667D02*
D03*
X9659Y18557D02*
D03*
X11135Y1824D02*
D03*
Y3793D02*
D03*
Y13635D02*
D03*
X10643Y14620D02*
D03*
Y18557D02*
D03*
X11628Y840D02*
D03*
X12120Y1824D02*
D03*
X11628Y2809D02*
D03*
X12120Y3793D02*
D03*
X11628Y4777D02*
D03*
Y8714D02*
D03*
X12120Y9698D02*
D03*
Y13635D02*
D03*
X11628Y14620D02*
D03*
X12120Y15604D02*
D03*
X11628Y16588D02*
D03*
X12120Y17572D02*
D03*
X11628Y18557D02*
D03*
X12612Y840D02*
D03*
Y2809D02*
D03*
X13104Y3793D02*
D03*
X12612Y4777D02*
D03*
X13104Y13635D02*
D03*
X12612Y14620D02*
D03*
X13104Y15604D02*
D03*
X12612Y16588D02*
D03*
Y18557D02*
D03*
X13596Y2809D02*
D03*
X14088Y3793D02*
D03*
X13596Y4777D02*
D03*
X14088Y15604D02*
D03*
X13596Y16588D02*
D03*
M02*
