G04 Layer_Color=8421504*
%FSLAX24Y24*%
%MOIN*%
G70*
G01*
G75*
%ADD10R,0.0374X0.0157*%
%ADD11R,0.0315X0.0118*%
%ADD12R,0.0256X0.0118*%
%ADD13R,0.0472X0.0984*%
%ADD14R,0.0374X0.0571*%
%ADD15R,0.0433X0.0571*%
%ADD16R,0.0571X0.0433*%
G04:AMPARAMS|DCode=17|XSize=64.6mil|YSize=16.1mil|CornerRadius=2mil|HoleSize=0mil|Usage=FLASHONLY|Rotation=90.000|XOffset=0mil|YOffset=0mil|HoleType=Round|Shape=RoundedRectangle|*
%AMROUNDEDRECTD17*
21,1,0.0646,0.0121,0,0,90.0*
21,1,0.0605,0.0161,0,0,90.0*
1,1,0.0040,0.0061,0.0303*
1,1,0.0040,0.0061,-0.0303*
1,1,0.0040,-0.0061,-0.0303*
1,1,0.0040,-0.0061,0.0303*
%
%ADD17ROUNDEDRECTD17*%
%ADD18R,0.0600X0.0256*%
%ADD19R,0.0315X0.0669*%
%ADD21R,0.0354X0.0551*%
D10*
X14237Y12858D02*
D03*
X14237Y7110D02*
D03*
D11*
X14346Y12582D02*
D03*
Y12346D02*
D03*
Y12110D02*
D03*
Y11874D02*
D03*
X14346Y11637D02*
D03*
X14346Y11401D02*
D03*
Y11165D02*
D03*
X14346Y10929D02*
D03*
X14346Y10693D02*
D03*
Y10456D02*
D03*
X14346Y10220D02*
D03*
X14346Y9984D02*
D03*
Y9748D02*
D03*
X14346Y9511D02*
D03*
X14346Y9275D02*
D03*
X14346Y9039D02*
D03*
Y8803D02*
D03*
X14346Y8567D02*
D03*
X14346Y8330D02*
D03*
X14346Y8094D02*
D03*
Y7858D02*
D03*
X14346Y7622D02*
D03*
X14346Y7385D02*
D03*
D12*
X13213Y12464D02*
D03*
Y12228D02*
D03*
Y11992D02*
D03*
Y11756D02*
D03*
Y11519D02*
D03*
Y11283D02*
D03*
Y11047D02*
D03*
Y10811D02*
D03*
Y10574D02*
D03*
Y10338D02*
D03*
Y10102D02*
D03*
Y9866D02*
D03*
Y9630D02*
D03*
Y9393D02*
D03*
Y9157D02*
D03*
Y8921D02*
D03*
Y8685D02*
D03*
Y8448D02*
D03*
Y8212D02*
D03*
Y7976D02*
D03*
Y7740D02*
D03*
Y7504D02*
D03*
D13*
X7103Y17323D02*
D03*
X6119D02*
D03*
X5135D02*
D03*
D14*
X5879Y15856D02*
D03*
X6667D02*
D03*
X5709Y12598D02*
D03*
X4921D02*
D03*
X5709Y11017D02*
D03*
X4921D02*
D03*
X7205Y6575D02*
D03*
X6417D02*
D03*
X7755Y6556D02*
D03*
X8542D02*
D03*
X6702Y3465D02*
D03*
X5914D02*
D03*
X13386Y6299D02*
D03*
X14173D02*
D03*
D15*
X5000Y11819D02*
D03*
X5709D02*
D03*
X10986Y5306D02*
D03*
X10277D02*
D03*
D16*
X5809Y9803D02*
D03*
Y9094D02*
D03*
X7579Y13756D02*
D03*
Y13047D02*
D03*
X9275Y7835D02*
D03*
Y8543D02*
D03*
X8541Y13751D02*
D03*
Y13042D02*
D03*
X8346Y7835D02*
D03*
Y8543D02*
D03*
D17*
X6853Y9635D02*
D03*
X7103D02*
D03*
X7353D02*
D03*
X7603D02*
D03*
X7853D02*
D03*
X8103D02*
D03*
X8353D02*
D03*
X8603D02*
D03*
X8853D02*
D03*
X9103D02*
D03*
X9353D02*
D03*
X9603D02*
D03*
Y11710D02*
D03*
X9353D02*
D03*
X9103D02*
D03*
X8853D02*
D03*
X8603D02*
D03*
X8353D02*
D03*
X8103D02*
D03*
X7853D02*
D03*
X7603D02*
D03*
X7353D02*
D03*
X7103D02*
D03*
X6853D02*
D03*
D18*
X6864Y5711D02*
D03*
Y5211D02*
D03*
Y4711D02*
D03*
Y4211D02*
D03*
X8999D02*
D03*
Y4711D02*
D03*
Y5211D02*
D03*
Y5711D02*
D03*
D19*
X11244Y17992D02*
D03*
X9906D02*
D03*
X11230Y16146D02*
D03*
X9891D02*
D03*
X11227Y14291D02*
D03*
X9889D02*
D03*
D21*
X7341Y15866D02*
D03*
X8089D02*
D03*
M02*
