G04 Layer_Color=2752767*
%FSLAX24Y24*%
%MOIN*%
G70*
G01*
G75*
%ADD67C,0.0020*%
%ADD68C,0.0027*%
D67*
X3248Y5146D02*
Y5306D01*
X3408D01*
Y5146D01*
X3248D01*
X257Y6839D02*
X177Y6999D01*
X337D01*
X257Y6839D01*
Y3454D02*
X177Y3614D01*
X337D01*
X257Y3454D01*
X3248Y9861D02*
Y10021D01*
X3408D01*
Y9861D01*
X3248D01*
X257Y11554D02*
X177Y11714D01*
X337D01*
X257Y11554D01*
Y8169D02*
X177Y8329D01*
X337D01*
X257Y8169D01*
X3248Y14626D02*
Y14786D01*
X3408D01*
Y14626D01*
X3248D01*
X257Y16319D02*
X177Y16479D01*
X337D01*
X257Y16319D01*
Y12933D02*
X177Y13093D01*
X337D01*
X257Y12933D01*
X7457Y18326D02*
X7497Y18366D01*
X7537D01*
X7497Y18406D01*
X7537Y18446D01*
X7497D01*
X7457Y18486D01*
X7417Y18446D01*
X7377D01*
X7417Y18406D01*
X7377Y18366D01*
X7417D01*
X7457Y18326D01*
X4780D02*
X4820Y18366D01*
X4860D01*
X4820Y18406D01*
X4860Y18446D01*
X4820D01*
X4780Y18486D01*
X4740Y18446D01*
X4700D01*
X4740Y18406D01*
X4700Y18366D01*
X4740D01*
X4780Y18326D01*
X1101Y18030D02*
X1141Y18110D01*
X1101Y18190D01*
X1181Y18150D01*
X1261Y18190D01*
X1221Y18110D01*
X1261Y18030D01*
X1181Y18070D01*
X1101Y18030D01*
X13700D02*
X13740Y18110D01*
X13700Y18190D01*
X13780Y18150D01*
X13860Y18190D01*
X13820Y18110D01*
X13860Y18030D01*
X13780Y18070D01*
X13700Y18030D01*
Y1101D02*
X13740Y1181D01*
X13700Y1261D01*
X13780Y1221D01*
X13860Y1261D01*
X13820Y1181D01*
X13860Y1101D01*
X13780Y1141D01*
X13700Y1101D01*
X1101D02*
X1141Y1181D01*
X1101Y1261D01*
X1181Y1221D01*
X1261Y1261D01*
X1221Y1181D01*
X1261Y1101D01*
X1181Y1141D01*
X1101Y1101D01*
X14645Y7582D02*
Y7542D01*
X14725D01*
Y7582D01*
X14765D01*
Y7662D01*
X14725D01*
Y7702D01*
X14645D01*
Y7662D01*
X14605D01*
Y7582D01*
X14645D01*
X12873Y7936D02*
Y7896D01*
X12953D01*
Y7936D01*
X12993D01*
Y8016D01*
X12953D01*
Y8056D01*
X12873D01*
Y8016D01*
X12833D01*
Y7936D01*
X12873D01*
X12890Y7464D02*
Y7424D01*
X12970D01*
Y7464D01*
X13010D01*
Y7544D01*
X12970D01*
Y7584D01*
X12890D01*
Y7544D01*
X12850D01*
Y7464D01*
X12890D01*
X14661Y10416D02*
Y10376D01*
X14741D01*
Y10416D01*
X14781D01*
Y10496D01*
X14741D01*
Y10536D01*
X14661D01*
Y10496D01*
X14621D01*
Y10416D01*
X14661D01*
X13992Y10653D02*
Y10613D01*
X14072D01*
Y10653D01*
X14112D01*
Y10733D01*
X14072D01*
Y10773D01*
X13992D01*
Y10733D01*
X13952D01*
Y10653D01*
X13992D01*
X13992Y11125D02*
Y11085D01*
X14072D01*
Y11125D01*
X14112D01*
Y11205D01*
X14072D01*
Y11245D01*
X13992D01*
Y11205D01*
X13952D01*
Y11125D01*
X13992D01*
X14661Y10889D02*
Y10849D01*
X14741D01*
Y10889D01*
X14781D01*
Y10969D01*
X14741D01*
Y11009D01*
X14661D01*
Y10969D01*
X14621D01*
Y10889D01*
X14661D01*
X13992Y11597D02*
Y11557D01*
X14072D01*
Y11597D01*
X14112D01*
Y11677D01*
X14072D01*
Y11717D01*
X13992D01*
Y11677D01*
X13952D01*
Y11597D01*
X13992D01*
X14661Y11361D02*
Y11321D01*
X14741D01*
Y11361D01*
X14781D01*
Y11441D01*
X14741D01*
Y11481D01*
X14661D01*
Y11441D01*
X14621D01*
Y11361D01*
X14661D01*
X9563Y12165D02*
Y12125D01*
X9643D01*
Y12165D01*
X9683D01*
Y12245D01*
X9643D01*
Y12285D01*
X9563D01*
Y12245D01*
X9523D01*
Y12165D01*
X9563D01*
X9063Y11150D02*
Y11110D01*
X9143D01*
Y11150D01*
X9183D01*
Y11230D01*
X9143D01*
Y11270D01*
X9063D01*
Y11230D01*
X9023D01*
Y11150D01*
X9063D01*
X8563Y11146D02*
Y11106D01*
X8643D01*
Y11146D01*
X8683D01*
Y11226D01*
X8643D01*
Y11266D01*
X8563D01*
Y11226D01*
X8523D01*
Y11146D01*
X8563D01*
X8063Y11157D02*
Y11117D01*
X8143D01*
Y11157D01*
X8183D01*
Y11237D01*
X8143D01*
Y11277D01*
X8063D01*
Y11237D01*
X8023D01*
Y11157D01*
X8063D01*
X7813Y10933D02*
Y10893D01*
X7893D01*
Y10933D01*
X7933D01*
Y11013D01*
X7893D01*
Y11053D01*
X7813D01*
Y11013D01*
X7773D01*
Y10933D01*
X7813D01*
X9566Y10551D02*
Y10511D01*
X9646D01*
Y10551D01*
X9686D01*
Y10631D01*
X9646D01*
Y10671D01*
X9566D01*
Y10631D01*
X9526D01*
Y10551D01*
X9566D01*
X10039Y10551D02*
Y10511D01*
X10119D01*
Y10551D01*
X10159D01*
Y10631D01*
X10119D01*
Y10671D01*
X10039D01*
Y10631D01*
X9999D01*
Y10551D01*
X10039D01*
X7539Y14153D02*
Y14113D01*
X7619D01*
Y14153D01*
X7659D01*
Y14233D01*
X7619D01*
Y14273D01*
X7539D01*
Y14233D01*
X7499D01*
Y14153D01*
X7539D01*
X8501Y14148D02*
Y14108D01*
X8581D01*
Y14148D01*
X8621D01*
Y14228D01*
X8581D01*
Y14268D01*
X8501D01*
Y14228D01*
X8461D01*
Y14148D01*
X8501D01*
X4523Y11779D02*
Y11739D01*
X4603D01*
Y11779D01*
X4643D01*
Y11859D01*
X4603D01*
Y11899D01*
X4523D01*
Y11859D01*
X4483D01*
Y11779D01*
X4523D01*
X5236Y10511D02*
Y10471D01*
X5316D01*
Y10511D01*
X5356D01*
Y10591D01*
X5316D01*
Y10631D01*
X5236D01*
Y10591D01*
X5196D01*
Y10511D01*
X5236D01*
X4527Y12516D02*
Y12476D01*
X4607D01*
Y12516D01*
X4647D01*
Y12596D01*
X4607D01*
Y12636D01*
X4527D01*
Y12596D01*
X4487D01*
Y12516D01*
X4527D01*
X7103Y12598D02*
Y12558D01*
X7183D01*
Y12598D01*
X7223D01*
Y12678D01*
X7183D01*
Y12718D01*
X7103D01*
Y12678D01*
X7063D01*
Y12598D01*
X7103D01*
X8541Y15826D02*
Y15786D01*
X8621D01*
Y15826D01*
X8661D01*
Y15906D01*
X8621D01*
Y15946D01*
X8541D01*
Y15906D01*
X8501D01*
Y15826D01*
X8541D01*
X11696Y17952D02*
Y17912D01*
X11776D01*
Y17952D01*
X11816D01*
Y18032D01*
X11776D01*
Y18072D01*
X11696D01*
Y18032D01*
X11656D01*
Y17952D01*
X11696D01*
X11681Y16106D02*
Y16066D01*
X11761D01*
Y16106D01*
X11801D01*
Y16186D01*
X11761D01*
Y16226D01*
X11681D01*
Y16186D01*
X11641D01*
Y16106D01*
X11681D01*
X11679Y14251D02*
Y14211D01*
X11759D01*
Y14251D01*
X11799D01*
Y14331D01*
X11759D01*
Y14371D01*
X11679D01*
Y14331D01*
X11639D01*
Y14251D01*
X11679D01*
X7063Y9015D02*
Y8975D01*
X7143D01*
Y9015D01*
X7183D01*
Y9095D01*
X7143D01*
Y9135D01*
X7063D01*
Y9095D01*
X7023D01*
Y9015D01*
X7063D01*
X7362Y4684D02*
Y4644D01*
X7442D01*
Y4684D01*
X7482D01*
Y4764D01*
X7442D01*
Y4804D01*
X7362D01*
Y4764D01*
X7322D01*
Y4684D01*
X7362D01*
X11380Y5266D02*
Y5226D01*
X11460D01*
Y5266D01*
X11500D01*
Y5346D01*
X11460D01*
Y5386D01*
X11380D01*
Y5346D01*
X11340D01*
Y5266D01*
X11380D01*
X7299Y4171D02*
Y4131D01*
X7379D01*
Y4171D01*
X7419D01*
Y4251D01*
X7379D01*
Y4291D01*
X7299D01*
Y4251D01*
X7259D01*
Y4171D01*
X7299D01*
X5944Y6653D02*
Y6613D01*
X6024D01*
Y6653D01*
X6064D01*
Y6733D01*
X6024D01*
Y6773D01*
X5944D01*
Y6733D01*
X5904D01*
Y6653D01*
X5944D01*
X9235Y6692D02*
Y6652D01*
X9315D01*
Y6692D01*
X9355D01*
Y6772D01*
X9315D01*
Y6812D01*
X9235D01*
Y6772D01*
X9195D01*
Y6692D01*
X9235D01*
X14661Y12070D02*
Y12030D01*
X14741D01*
Y12070D01*
X14781D01*
Y12150D01*
X14741D01*
Y12190D01*
X14661D01*
Y12150D01*
X14621D01*
Y12070D01*
X14661D01*
X13999Y12306D02*
Y12266D01*
X14079D01*
Y12306D01*
X14119D01*
Y12386D01*
X14079D01*
Y12426D01*
X13999D01*
Y12386D01*
X13959D01*
Y12306D01*
X13999D01*
X12857Y12188D02*
Y12148D01*
X12937D01*
Y12188D01*
X12977D01*
Y12268D01*
X12937D01*
Y12308D01*
X12857D01*
Y12268D01*
X12817D01*
Y12188D01*
X12857D01*
X13897Y8209D02*
Y8169D01*
X13977D01*
Y8209D01*
X14017D01*
Y8289D01*
X13977D01*
Y8329D01*
X13897D01*
Y8289D01*
X13857D01*
Y8209D01*
X13897D01*
X13543Y8346D02*
Y8306D01*
X13623D01*
Y8346D01*
X13663D01*
Y8426D01*
X13623D01*
Y8466D01*
X13543D01*
Y8426D01*
X13503D01*
Y8346D01*
X13543D01*
X12519Y8621D02*
Y8581D01*
X12599D01*
Y8621D01*
X12639D01*
Y8701D01*
X12599D01*
Y8741D01*
X12519D01*
Y8701D01*
X12479D01*
Y8621D01*
X12519D01*
X14668Y8763D02*
Y8723D01*
X14748D01*
Y8763D01*
X14788D01*
Y8843D01*
X14748D01*
Y8883D01*
X14668D01*
Y8843D01*
X14628D01*
Y8763D01*
X14668D01*
X14133Y5787D02*
Y5747D01*
X14213D01*
Y5787D01*
X14253D01*
Y5867D01*
X14213D01*
Y5907D01*
X14133D01*
Y5867D01*
X14093D01*
Y5787D01*
X14133D01*
X8700Y10157D02*
Y10117D01*
X8780D01*
Y10157D01*
X8820D01*
Y10237D01*
X8780D01*
Y10277D01*
X8700D01*
Y10237D01*
X8660D01*
Y10157D01*
X8700D01*
X8313Y8936D02*
Y8896D01*
X8393D01*
Y8936D01*
X8433D01*
Y9016D01*
X8393D01*
Y9056D01*
X8313D01*
Y9016D01*
X8273D01*
Y8936D01*
X8313D01*
X7401Y8897D02*
Y8857D01*
X7481D01*
Y8897D01*
X7521D01*
Y8977D01*
X7481D01*
Y9017D01*
X7401D01*
Y8977D01*
X7361D01*
Y8897D01*
X7401D01*
X6463Y13063D02*
Y13023D01*
X6543D01*
Y13063D01*
X6583D01*
Y13143D01*
X6543D01*
Y13183D01*
X6463D01*
Y13143D01*
X6423D01*
Y13063D01*
X6463D01*
X9443Y13002D02*
Y12962D01*
X9523D01*
Y13002D01*
X9563D01*
Y13082D01*
X9523D01*
Y13122D01*
X9443D01*
Y13082D01*
X9403D01*
Y13002D01*
X9443D01*
X10787Y8858D02*
Y8818D01*
X10867D01*
Y8858D01*
X10907D01*
Y8938D01*
X10867D01*
Y8978D01*
X10787D01*
Y8938D01*
X10747D01*
Y8858D01*
X10787D01*
X11141Y11597D02*
Y11557D01*
X11221D01*
Y11597D01*
X11261D01*
Y11677D01*
X11221D01*
Y11717D01*
X11141D01*
Y11677D01*
X11101D01*
Y11597D01*
X11141D01*
X10590Y11574D02*
Y11534D01*
X10670D01*
Y11574D01*
X10710D01*
Y11654D01*
X10670D01*
Y11694D01*
X10590D01*
Y11654D01*
X10550D01*
Y11574D01*
X10590D01*
X12381Y10298D02*
Y10258D01*
X12461D01*
Y10298D01*
X12501D01*
Y10378D01*
X12461D01*
Y10418D01*
X12381D01*
Y10378D01*
X12341D01*
Y10298D01*
X12381D01*
X13487Y9353D02*
Y9313D01*
X13567D01*
Y9353D01*
X13607D01*
Y9433D01*
X13567D01*
Y9473D01*
X13487D01*
Y9433D01*
X13447D01*
Y9353D01*
X13487D01*
X12165Y6062D02*
Y6022D01*
X12245D01*
Y6062D01*
X12285D01*
Y6142D01*
X12245D01*
Y6182D01*
X12165D01*
Y6142D01*
X12125D01*
Y6062D01*
X12165D01*
X4603Y17283D02*
Y17243D01*
X4683D01*
Y17283D01*
X4723D01*
Y17363D01*
X4683D01*
Y17403D01*
X4603D01*
Y17363D01*
X4563D01*
Y17283D01*
X4603D01*
X7480Y10157D02*
Y10117D01*
X7560D01*
Y10157D01*
X7600D01*
Y10237D01*
X7560D01*
Y10277D01*
X7480D01*
Y10237D01*
X7440D01*
Y10157D01*
X7480D01*
X14197Y13464D02*
Y13424D01*
X14277D01*
Y13464D01*
X14317D01*
Y13544D01*
X14277D01*
Y13584D01*
X14197D01*
Y13544D01*
X14157D01*
Y13464D01*
X14197D01*
X7563Y17283D02*
Y17243D01*
X7643D01*
Y17283D01*
X7683D01*
Y17363D01*
X7643D01*
Y17403D01*
X7563D01*
Y17363D01*
X7523D01*
Y17283D01*
X7563D01*
X12007Y9015D02*
Y8975D01*
X12087D01*
Y9015D01*
X12127D01*
Y9095D01*
X12087D01*
Y9135D01*
X12007D01*
Y9095D01*
X11967D01*
Y9015D01*
X12007D01*
X14566Y6614D02*
Y6574D01*
X14646D01*
Y6614D01*
X14686D01*
Y6694D01*
X14646D01*
Y6734D01*
X14566D01*
Y6694D01*
X14526D01*
Y6614D01*
X14566D01*
X13346Y5511D02*
Y5471D01*
X13426D01*
Y5511D01*
X13466D01*
Y5591D01*
X13426D01*
Y5631D01*
X13346D01*
Y5591D01*
X13306D01*
Y5511D01*
X13346D01*
X1253Y3753D02*
Y3713D01*
X1333D01*
Y3753D01*
X1373D01*
Y3833D01*
X1333D01*
Y3873D01*
X1253D01*
Y3833D01*
X1213D01*
Y3753D01*
X1253D01*
Y7690D02*
Y7650D01*
X1333D01*
Y7690D01*
X1373D01*
Y7770D01*
X1333D01*
Y7810D01*
X1253D01*
Y7770D01*
X1213D01*
Y7690D01*
X1253D01*
X2237Y1784D02*
Y1744D01*
X2317D01*
Y1784D01*
X2357D01*
Y1864D01*
X2317D01*
Y1904D01*
X2237D01*
Y1864D01*
X2197D01*
Y1784D01*
X2237D01*
X1745Y2769D02*
Y2729D01*
X1825D01*
Y2769D01*
X1865D01*
Y2849D01*
X1825D01*
Y2889D01*
X1745D01*
Y2849D01*
X1705D01*
Y2769D01*
X1745D01*
X2237Y3753D02*
Y3713D01*
X2317D01*
Y3753D01*
X2357D01*
Y3833D01*
X2317D01*
Y3873D01*
X2237D01*
Y3833D01*
X2197D01*
Y3753D01*
X2237D01*
X1745Y6706D02*
Y6666D01*
X1825D01*
Y6706D01*
X1865D01*
Y6786D01*
X1825D01*
Y6826D01*
X1745D01*
Y6786D01*
X1705D01*
Y6706D01*
X1745D01*
X2237Y7690D02*
Y7650D01*
X2317D01*
Y7690D01*
X2357D01*
Y7770D01*
X2317D01*
Y7810D01*
X2237D01*
Y7770D01*
X2197D01*
Y7690D01*
X2237D01*
Y11627D02*
Y11587D01*
X2317D01*
Y11627D01*
X2357D01*
Y11707D01*
X2317D01*
Y11747D01*
X2237D01*
Y11707D01*
X2197D01*
Y11627D01*
X2237D01*
Y13595D02*
Y13555D01*
X2317D01*
Y13595D01*
X2357D01*
Y13675D01*
X2317D01*
Y13715D01*
X2237D01*
Y13675D01*
X2197D01*
Y13595D01*
X2237D01*
X2729Y800D02*
Y760D01*
X2809D01*
Y800D01*
X2849D01*
Y880D01*
X2809D01*
Y920D01*
X2729D01*
Y880D01*
X2689D01*
Y800D01*
X2729D01*
X3221Y1784D02*
Y1744D01*
X3301D01*
Y1784D01*
X3341D01*
Y1864D01*
X3301D01*
Y1904D01*
X3221D01*
Y1864D01*
X3181D01*
Y1784D01*
X3221D01*
X2729Y2769D02*
Y2729D01*
X2809D01*
Y2769D01*
X2849D01*
Y2849D01*
X2809D01*
Y2889D01*
X2729D01*
Y2849D01*
X2689D01*
Y2769D01*
X2729D01*
X3221Y3753D02*
Y3713D01*
X3301D01*
Y3753D01*
X3341D01*
Y3833D01*
X3301D01*
Y3873D01*
X3221D01*
Y3833D01*
X3181D01*
Y3753D01*
X3221D01*
X2729Y6706D02*
Y6666D01*
X2809D01*
Y6706D01*
X2849D01*
Y6786D01*
X2809D01*
Y6826D01*
X2729D01*
Y6786D01*
X2689D01*
Y6706D01*
X2729D01*
X3714Y800D02*
Y760D01*
X3794D01*
Y800D01*
X3834D01*
Y880D01*
X3794D01*
Y920D01*
X3714D01*
Y880D01*
X3674D01*
Y800D01*
X3714D01*
X4206Y1784D02*
Y1744D01*
X4286D01*
Y1784D01*
X4326D01*
Y1864D01*
X4286D01*
Y1904D01*
X4206D01*
Y1864D01*
X4166D01*
Y1784D01*
X4206D01*
X3714Y2769D02*
Y2729D01*
X3794D01*
Y2769D01*
X3834D01*
Y2849D01*
X3794D01*
Y2889D01*
X3714D01*
Y2849D01*
X3674D01*
Y2769D01*
X3714D01*
X4206Y3753D02*
Y3713D01*
X4286D01*
Y3753D01*
X4326D01*
Y3833D01*
X4286D01*
Y3873D01*
X4206D01*
Y3833D01*
X4166D01*
Y3753D01*
X4206D01*
Y5721D02*
Y5681D01*
X4286D01*
Y5721D01*
X4326D01*
Y5801D01*
X4286D01*
Y5841D01*
X4206D01*
Y5801D01*
X4166D01*
Y5721D01*
X4206D01*
Y13595D02*
Y13555D01*
X4286D01*
Y13595D01*
X4326D01*
Y13675D01*
X4286D01*
Y13715D01*
X4206D01*
Y13675D01*
X4166D01*
Y13595D01*
X4206D01*
X4698Y800D02*
Y760D01*
X4778D01*
Y800D01*
X4818D01*
Y880D01*
X4778D01*
Y920D01*
X4698D01*
Y880D01*
X4658D01*
Y800D01*
X4698D01*
X5190Y1784D02*
Y1744D01*
X5270D01*
Y1784D01*
X5310D01*
Y1864D01*
X5270D01*
Y1904D01*
X5190D01*
Y1864D01*
X5150D01*
Y1784D01*
X5190D01*
X4698Y2769D02*
Y2729D01*
X4778D01*
Y2769D01*
X4818D01*
Y2849D01*
X4778D01*
Y2889D01*
X4698D01*
Y2849D01*
X4658D01*
Y2769D01*
X4698D01*
X5190Y3753D02*
Y3713D01*
X5270D01*
Y3753D01*
X5310D01*
Y3833D01*
X5270D01*
Y3873D01*
X5190D01*
Y3833D01*
X5150D01*
Y3753D01*
X5190D01*
X4698Y4737D02*
Y4697D01*
X4778D01*
Y4737D01*
X4818D01*
Y4817D01*
X4778D01*
Y4857D01*
X4698D01*
Y4817D01*
X4658D01*
Y4737D01*
X4698D01*
X5190Y13595D02*
Y13555D01*
X5270D01*
Y13595D01*
X5310D01*
Y13675D01*
X5270D01*
Y13715D01*
X5190D01*
Y13675D01*
X5150D01*
Y13595D01*
X5190D01*
X4698Y14580D02*
Y14540D01*
X4778D01*
Y14580D01*
X4818D01*
Y14660D01*
X4778D01*
Y14700D01*
X4698D01*
Y14660D01*
X4658D01*
Y14580D01*
X4698D01*
X5682Y800D02*
Y760D01*
X5762D01*
Y800D01*
X5802D01*
Y880D01*
X5762D01*
Y920D01*
X5682D01*
Y880D01*
X5642D01*
Y800D01*
X5682D01*
X6174Y1784D02*
Y1744D01*
X6254D01*
Y1784D01*
X6294D01*
Y1864D01*
X6254D01*
Y1904D01*
X6174D01*
Y1864D01*
X6134D01*
Y1784D01*
X6174D01*
X5682Y2769D02*
Y2729D01*
X5762D01*
Y2769D01*
X5802D01*
Y2849D01*
X5762D01*
Y2889D01*
X5682D01*
Y2849D01*
X5642D01*
Y2769D01*
X5682D01*
X6666Y800D02*
Y760D01*
X6746D01*
Y800D01*
X6786D01*
Y880D01*
X6746D01*
Y920D01*
X6666D01*
Y880D01*
X6626D01*
Y800D01*
X6666D01*
X7158Y1784D02*
Y1744D01*
X7238D01*
Y1784D01*
X7278D01*
Y1864D01*
X7238D01*
Y1904D01*
X7158D01*
Y1864D01*
X7118D01*
Y1784D01*
X7158D01*
X6666Y2769D02*
Y2729D01*
X6746D01*
Y2769D01*
X6786D01*
Y2849D01*
X6746D01*
Y2889D01*
X6666D01*
Y2849D01*
X6626D01*
Y2769D01*
X6666D01*
X7158Y3753D02*
Y3713D01*
X7238D01*
Y3753D01*
X7278D01*
Y3833D01*
X7238D01*
Y3873D01*
X7158D01*
Y3833D01*
X7118D01*
Y3753D01*
X7158D01*
X7651Y800D02*
Y760D01*
X7731D01*
Y800D01*
X7771D01*
Y880D01*
X7731D01*
Y920D01*
X7651D01*
Y880D01*
X7611D01*
Y800D01*
X7651D01*
X8143Y1784D02*
Y1744D01*
X8223D01*
Y1784D01*
X8263D01*
Y1864D01*
X8223D01*
Y1904D01*
X8143D01*
Y1864D01*
X8103D01*
Y1784D01*
X8143D01*
X7651Y2769D02*
Y2729D01*
X7731D01*
Y2769D01*
X7771D01*
Y2849D01*
X7731D01*
Y2889D01*
X7651D01*
Y2849D01*
X7611D01*
Y2769D01*
X7651D01*
X8635Y800D02*
Y760D01*
X8715D01*
Y800D01*
X8755D01*
Y880D01*
X8715D01*
Y920D01*
X8635D01*
Y880D01*
X8595D01*
Y800D01*
X8635D01*
X9127Y1784D02*
Y1744D01*
X9207D01*
Y1784D01*
X9247D01*
Y1864D01*
X9207D01*
Y1904D01*
X9127D01*
Y1864D01*
X9087D01*
Y1784D01*
X9127D01*
X8635Y2769D02*
Y2729D01*
X8715D01*
Y2769D01*
X8755D01*
Y2849D01*
X8715D01*
Y2889D01*
X8635D01*
Y2849D01*
X8595D01*
Y2769D01*
X8635D01*
X9127Y3753D02*
Y3713D01*
X9207D01*
Y3753D01*
X9247D01*
Y3833D01*
X9207D01*
Y3873D01*
X9127D01*
Y3833D01*
X9087D01*
Y3753D01*
X9127D01*
X9619Y800D02*
Y760D01*
X9699D01*
Y800D01*
X9739D01*
Y880D01*
X9699D01*
Y920D01*
X9619D01*
Y880D01*
X9579D01*
Y800D01*
X9619D01*
Y2769D02*
Y2729D01*
X9699D01*
Y2769D01*
X9739D01*
Y2849D01*
X9699D01*
Y2889D01*
X9619D01*
Y2849D01*
X9579D01*
Y2769D01*
X9619D01*
X2237Y17532D02*
Y17492D01*
X2317D01*
Y17532D01*
X2357D01*
Y17612D01*
X2317D01*
Y17652D01*
X2237D01*
Y17612D01*
X2197D01*
Y17532D01*
X2237D01*
X3221D02*
Y17492D01*
X3301D01*
Y17532D01*
X3341D01*
Y17612D01*
X3301D01*
Y17652D01*
X3221D01*
Y17612D01*
X3181D01*
Y17532D01*
X3221D01*
X2729Y18517D02*
Y18477D01*
X2809D01*
Y18517D01*
X2849D01*
Y18597D01*
X2809D01*
Y18637D01*
X2729D01*
Y18597D01*
X2689D01*
Y18517D01*
X2729D01*
X3714Y16548D02*
Y16508D01*
X3794D01*
Y16548D01*
X3834D01*
Y16628D01*
X3794D01*
Y16668D01*
X3714D01*
Y16628D01*
X3674D01*
Y16548D01*
X3714D01*
X4206Y17532D02*
Y17492D01*
X4286D01*
Y17532D01*
X4326D01*
Y17612D01*
X4286D01*
Y17652D01*
X4206D01*
Y17612D01*
X4166D01*
Y17532D01*
X4206D01*
X3714Y18517D02*
Y18477D01*
X3794D01*
Y18517D01*
X3834D01*
Y18597D01*
X3794D01*
Y18637D01*
X3714D01*
Y18597D01*
X3674D01*
Y18517D01*
X3714D01*
X5190Y15564D02*
Y15524D01*
X5270D01*
Y15564D01*
X5310D01*
Y15644D01*
X5270D01*
Y15684D01*
X5190D01*
Y15644D01*
X5150D01*
Y15564D01*
X5190D01*
X4698Y16548D02*
Y16508D01*
X4778D01*
Y16548D01*
X4818D01*
Y16628D01*
X4778D01*
Y16668D01*
X4698D01*
Y16628D01*
X4658D01*
Y16548D01*
X4698D01*
X5682D02*
Y16508D01*
X5762D01*
Y16548D01*
X5802D01*
Y16628D01*
X5762D01*
Y16668D01*
X5682D01*
Y16628D01*
X5642D01*
Y16548D01*
X5682D01*
Y18517D02*
Y18477D01*
X5762D01*
Y18517D01*
X5802D01*
Y18597D01*
X5762D01*
Y18637D01*
X5682D01*
Y18597D01*
X5642D01*
Y18517D01*
X5682D01*
X6666Y14580D02*
Y14540D01*
X6746D01*
Y14580D01*
X6786D01*
Y14660D01*
X6746D01*
Y14700D01*
X6666D01*
Y14660D01*
X6626D01*
Y14580D01*
X6666D01*
Y16548D02*
Y16508D01*
X6746D01*
Y16548D01*
X6786D01*
Y16628D01*
X6746D01*
Y16668D01*
X6666D01*
Y16628D01*
X6626D01*
Y16548D01*
X6666D01*
Y18517D02*
Y18477D01*
X6746D01*
Y18517D01*
X6786D01*
Y18597D01*
X6746D01*
Y18637D01*
X6666D01*
Y18597D01*
X6626D01*
Y18517D01*
X6666D01*
X7651Y14580D02*
Y14540D01*
X7731D01*
Y14580D01*
X7771D01*
Y14660D01*
X7731D01*
Y14700D01*
X7651D01*
Y14660D01*
X7611D01*
Y14580D01*
X7651D01*
Y16548D02*
Y16508D01*
X7731D01*
Y16548D01*
X7771D01*
Y16628D01*
X7731D01*
Y16668D01*
X7651D01*
Y16628D01*
X7611D01*
Y16548D01*
X7651D01*
X9127Y13595D02*
Y13555D01*
X9207D01*
Y13595D01*
X9247D01*
Y13675D01*
X9207D01*
Y13715D01*
X9127D01*
Y13675D01*
X9087D01*
Y13595D01*
X9127D01*
X8635Y14580D02*
Y14540D01*
X8715D01*
Y14580D01*
X8755D01*
Y14660D01*
X8715D01*
Y14700D01*
X8635D01*
Y14660D01*
X8595D01*
Y14580D01*
X8635D01*
X9127Y15564D02*
Y15524D01*
X9207D01*
Y15564D01*
X9247D01*
Y15644D01*
X9207D01*
Y15684D01*
X9127D01*
Y15644D01*
X9087D01*
Y15564D01*
X9127D01*
Y17532D02*
Y17492D01*
X9207D01*
Y17532D01*
X9247D01*
Y17612D01*
X9207D01*
Y17652D01*
X9127D01*
Y17612D01*
X9087D01*
Y17532D01*
X9127D01*
X8635Y18517D02*
Y18477D01*
X8715D01*
Y18517D01*
X8755D01*
Y18597D01*
X8715D01*
Y18637D01*
X8635D01*
Y18597D01*
X8595D01*
Y18517D01*
X8635D01*
X10111Y9658D02*
Y9618D01*
X10191D01*
Y9658D01*
X10231D01*
Y9738D01*
X10191D01*
Y9778D01*
X10111D01*
Y9738D01*
X10071D01*
Y9658D01*
X10111D01*
Y11627D02*
Y11587D01*
X10191D01*
Y11627D01*
X10231D01*
Y11707D01*
X10191D01*
Y11747D01*
X10111D01*
Y11707D01*
X10071D01*
Y11627D01*
X10111D01*
X9619Y18517D02*
Y18477D01*
X9699D01*
Y18517D01*
X9739D01*
Y18597D01*
X9699D01*
Y18637D01*
X9619D01*
Y18597D01*
X9579D01*
Y18517D01*
X9619D01*
X11095Y1784D02*
Y1744D01*
X11175D01*
Y1784D01*
X11215D01*
Y1864D01*
X11175D01*
Y1904D01*
X11095D01*
Y1864D01*
X11055D01*
Y1784D01*
X11095D01*
Y3753D02*
Y3713D01*
X11175D01*
Y3753D01*
X11215D01*
Y3833D01*
X11175D01*
Y3873D01*
X11095D01*
Y3833D01*
X11055D01*
Y3753D01*
X11095D01*
Y13595D02*
Y13555D01*
X11175D01*
Y13595D01*
X11215D01*
Y13675D01*
X11175D01*
Y13715D01*
X11095D01*
Y13675D01*
X11055D01*
Y13595D01*
X11095D01*
X10603Y14580D02*
Y14540D01*
X10683D01*
Y14580D01*
X10723D01*
Y14660D01*
X10683D01*
Y14700D01*
X10603D01*
Y14660D01*
X10563D01*
Y14580D01*
X10603D01*
Y18517D02*
Y18477D01*
X10683D01*
Y18517D01*
X10723D01*
Y18597D01*
X10683D01*
Y18637D01*
X10603D01*
Y18597D01*
X10563D01*
Y18517D01*
X10603D01*
X11588Y800D02*
Y760D01*
X11668D01*
Y800D01*
X11708D01*
Y880D01*
X11668D01*
Y920D01*
X11588D01*
Y880D01*
X11548D01*
Y800D01*
X11588D01*
X12080Y1784D02*
Y1744D01*
X12160D01*
Y1784D01*
X12200D01*
Y1864D01*
X12160D01*
Y1904D01*
X12080D01*
Y1864D01*
X12040D01*
Y1784D01*
X12080D01*
X11588Y2769D02*
Y2729D01*
X11668D01*
Y2769D01*
X11708D01*
Y2849D01*
X11668D01*
Y2889D01*
X11588D01*
Y2849D01*
X11548D01*
Y2769D01*
X11588D01*
X12080Y3753D02*
Y3713D01*
X12160D01*
Y3753D01*
X12200D01*
Y3833D01*
X12160D01*
Y3873D01*
X12080D01*
Y3833D01*
X12040D01*
Y3753D01*
X12080D01*
X11588Y4737D02*
Y4697D01*
X11668D01*
Y4737D01*
X11708D01*
Y4817D01*
X11668D01*
Y4857D01*
X11588D01*
Y4817D01*
X11548D01*
Y4737D01*
X11588D01*
Y8674D02*
Y8634D01*
X11668D01*
Y8674D01*
X11708D01*
Y8754D01*
X11668D01*
Y8794D01*
X11588D01*
Y8754D01*
X11548D01*
Y8674D01*
X11588D01*
X12080Y9658D02*
Y9618D01*
X12160D01*
Y9658D01*
X12200D01*
Y9738D01*
X12160D01*
Y9778D01*
X12080D01*
Y9738D01*
X12040D01*
Y9658D01*
X12080D01*
Y13595D02*
Y13555D01*
X12160D01*
Y13595D01*
X12200D01*
Y13675D01*
X12160D01*
Y13715D01*
X12080D01*
Y13675D01*
X12040D01*
Y13595D01*
X12080D01*
X11588Y14580D02*
Y14540D01*
X11668D01*
Y14580D01*
X11708D01*
Y14660D01*
X11668D01*
Y14700D01*
X11588D01*
Y14660D01*
X11548D01*
Y14580D01*
X11588D01*
X12080Y15564D02*
Y15524D01*
X12160D01*
Y15564D01*
X12200D01*
Y15644D01*
X12160D01*
Y15684D01*
X12080D01*
Y15644D01*
X12040D01*
Y15564D01*
X12080D01*
X11588Y16548D02*
Y16508D01*
X11668D01*
Y16548D01*
X11708D01*
Y16628D01*
X11668D01*
Y16668D01*
X11588D01*
Y16628D01*
X11548D01*
Y16548D01*
X11588D01*
X12080Y17532D02*
Y17492D01*
X12160D01*
Y17532D01*
X12200D01*
Y17612D01*
X12160D01*
Y17652D01*
X12080D01*
Y17612D01*
X12040D01*
Y17532D01*
X12080D01*
X11588Y18517D02*
Y18477D01*
X11668D01*
Y18517D01*
X11708D01*
Y18597D01*
X11668D01*
Y18637D01*
X11588D01*
Y18597D01*
X11548D01*
Y18517D01*
X11588D01*
X12572Y800D02*
Y760D01*
X12652D01*
Y800D01*
X12692D01*
Y880D01*
X12652D01*
Y920D01*
X12572D01*
Y880D01*
X12532D01*
Y800D01*
X12572D01*
Y2769D02*
Y2729D01*
X12652D01*
Y2769D01*
X12692D01*
Y2849D01*
X12652D01*
Y2889D01*
X12572D01*
Y2849D01*
X12532D01*
Y2769D01*
X12572D01*
X13064Y3753D02*
Y3713D01*
X13144D01*
Y3753D01*
X13184D01*
Y3833D01*
X13144D01*
Y3873D01*
X13064D01*
Y3833D01*
X13024D01*
Y3753D01*
X13064D01*
X12572Y4737D02*
Y4697D01*
X12652D01*
Y4737D01*
X12692D01*
Y4817D01*
X12652D01*
Y4857D01*
X12572D01*
Y4817D01*
X12532D01*
Y4737D01*
X12572D01*
X13064Y13595D02*
Y13555D01*
X13144D01*
Y13595D01*
X13184D01*
Y13675D01*
X13144D01*
Y13715D01*
X13064D01*
Y13675D01*
X13024D01*
Y13595D01*
X13064D01*
X12572Y14580D02*
Y14540D01*
X12652D01*
Y14580D01*
X12692D01*
Y14660D01*
X12652D01*
Y14700D01*
X12572D01*
Y14660D01*
X12532D01*
Y14580D01*
X12572D01*
X13064Y15564D02*
Y15524D01*
X13144D01*
Y15564D01*
X13184D01*
Y15644D01*
X13144D01*
Y15684D01*
X13064D01*
Y15644D01*
X13024D01*
Y15564D01*
X13064D01*
X12572Y16548D02*
Y16508D01*
X12652D01*
Y16548D01*
X12692D01*
Y16628D01*
X12652D01*
Y16668D01*
X12572D01*
Y16628D01*
X12532D01*
Y16548D01*
X12572D01*
Y18517D02*
Y18477D01*
X12652D01*
Y18517D01*
X12692D01*
Y18597D01*
X12652D01*
Y18637D01*
X12572D01*
Y18597D01*
X12532D01*
Y18517D01*
X12572D01*
X13556Y2769D02*
Y2729D01*
X13636D01*
Y2769D01*
X13676D01*
Y2849D01*
X13636D01*
Y2889D01*
X13556D01*
Y2849D01*
X13516D01*
Y2769D01*
X13556D01*
X14048Y3753D02*
Y3713D01*
X14128D01*
Y3753D01*
X14168D01*
Y3833D01*
X14128D01*
Y3873D01*
X14048D01*
Y3833D01*
X14008D01*
Y3753D01*
X14048D01*
X13556Y4737D02*
Y4697D01*
X13636D01*
Y4737D01*
X13676D01*
Y4817D01*
X13636D01*
Y4857D01*
X13556D01*
Y4817D01*
X13516D01*
Y4737D01*
X13556D01*
X14048Y15564D02*
Y15524D01*
X14128D01*
Y15564D01*
X14168D01*
Y15644D01*
X14128D01*
Y15684D01*
X14048D01*
Y15644D01*
X14008D01*
Y15564D01*
X14048D01*
X13556Y16548D02*
Y16508D01*
X13636D01*
Y16548D01*
X13676D01*
Y16628D01*
X13636D01*
Y16668D01*
X13556D01*
Y16628D01*
X13516D01*
Y16548D01*
X13556D01*
D68*
X1636Y5226D02*
G03*
X1636Y5226I-80J0D01*
G01*
Y9941D02*
G03*
X1636Y9941I-80J0D01*
G01*
Y14706D02*
G03*
X1636Y14706I-80J0D01*
G01*
M02*
